G75*
%MOIN*%
%OFA0B0*%
%FSLAX24Y24*%
%IPPOS*%
%LPD*%
%AMOC8*
5,1,8,0,0,1.08239X$1,22.5*
%
%ADD10C,0.0000*%
%ADD11C,0.0020*%
%ADD12C,0.0030*%
%ADD13C,0.0050*%
%ADD14C,0.0080*%
%ADD15R,0.0236X0.0197*%
%ADD16R,0.0118X0.0433*%
%ADD17C,0.0157*%
%ADD18C,0.0060*%
%ADD19R,0.0433X0.0118*%
D10*
X001630Y001130D02*
X001630Y032622D01*
X040984Y032622D01*
X040984Y001130D01*
X001630Y001130D01*
D11*
X001950Y002341D02*
X001950Y002561D01*
X002023Y002561D02*
X001876Y002561D01*
X002097Y002561D02*
X002097Y002341D01*
X002097Y002414D02*
X002207Y002414D01*
X002244Y002451D01*
X002244Y002524D01*
X002207Y002561D01*
X002097Y002561D01*
X002318Y002304D02*
X002465Y002304D01*
X002539Y002377D02*
X002539Y002524D01*
X002576Y002561D01*
X002649Y002561D01*
X002686Y002524D01*
X002686Y002451D02*
X002613Y002451D01*
X002686Y002451D02*
X002686Y002377D01*
X002649Y002341D01*
X002576Y002341D01*
X002539Y002377D01*
X002760Y002341D02*
X002760Y002561D01*
X002907Y002341D01*
X002907Y002561D01*
X002981Y002561D02*
X002981Y002341D01*
X003091Y002341D01*
X003128Y002377D01*
X003128Y002524D01*
X003091Y002561D01*
X002981Y002561D01*
X003202Y002524D02*
X003239Y002561D01*
X003312Y002561D01*
X003349Y002524D01*
X003202Y002377D01*
X003239Y002341D01*
X003312Y002341D01*
X003349Y002377D01*
X003349Y002524D01*
X003202Y002524D02*
X003202Y002377D01*
X005341Y001852D02*
X005488Y001852D01*
X005562Y001852D02*
X005672Y001852D01*
X005709Y001816D01*
X005709Y001742D01*
X005672Y001706D01*
X005562Y001706D01*
X005562Y001632D02*
X005562Y001852D01*
X005414Y001852D02*
X005414Y001632D01*
X005783Y001595D02*
X005930Y001595D01*
X006077Y001669D02*
X006077Y001816D01*
X006004Y001742D02*
X006151Y001742D01*
X006225Y001669D02*
X006261Y001632D01*
X006335Y001632D01*
X006372Y001669D01*
X006372Y001706D01*
X006335Y001742D01*
X006298Y001742D01*
X006335Y001742D02*
X006372Y001779D01*
X006372Y001816D01*
X006335Y001852D01*
X006261Y001852D01*
X006225Y001816D01*
X006446Y001852D02*
X006446Y001706D01*
X006519Y001632D01*
X006593Y001706D01*
X006593Y001852D01*
X006667Y001816D02*
X006703Y001852D01*
X006777Y001852D01*
X006814Y001816D01*
X006814Y001779D01*
X006777Y001742D01*
X006814Y001706D01*
X006814Y001669D01*
X006777Y001632D01*
X006703Y001632D01*
X006667Y001669D01*
X006740Y001742D02*
X006777Y001742D01*
X006888Y001669D02*
X007034Y001816D01*
X007034Y001669D01*
X006998Y001632D01*
X006924Y001632D01*
X006888Y001669D01*
X006888Y001816D01*
X006924Y001852D01*
X006998Y001852D01*
X007034Y001816D01*
X006487Y002199D02*
X006340Y002199D01*
X006414Y002199D02*
X006414Y002419D01*
X006340Y002346D01*
X006266Y002419D02*
X006266Y002199D01*
X006193Y002273D01*
X006119Y002199D01*
X006119Y002419D01*
X006045Y002383D02*
X006008Y002419D01*
X005935Y002419D01*
X005898Y002383D01*
X005898Y002346D01*
X005935Y002309D01*
X006008Y002309D01*
X006045Y002273D01*
X006045Y002236D01*
X006008Y002199D01*
X005935Y002199D01*
X005898Y002236D01*
X006708Y003770D02*
X006708Y003880D01*
X006745Y003916D01*
X006818Y003916D01*
X006855Y003880D01*
X006855Y003770D01*
X006855Y003843D02*
X006929Y003916D01*
X006892Y003991D02*
X006929Y004027D01*
X006929Y004101D01*
X006892Y004137D01*
X006855Y004137D01*
X006818Y004101D01*
X006818Y004064D01*
X006818Y004101D02*
X006782Y004137D01*
X006745Y004137D01*
X006708Y004101D01*
X006708Y004027D01*
X006745Y003991D01*
X006708Y003770D02*
X006929Y003770D01*
X006818Y004212D02*
X006818Y004358D01*
X006708Y004322D02*
X006818Y004212D01*
X006708Y004322D02*
X006929Y004322D01*
X006968Y006908D02*
X006968Y007018D01*
X006932Y007055D01*
X006858Y007055D01*
X006822Y007018D01*
X006822Y006908D01*
X007042Y006908D01*
X006968Y006982D02*
X007042Y007055D01*
X007042Y007129D02*
X006895Y007276D01*
X006858Y007276D01*
X006822Y007239D01*
X006822Y007166D01*
X006858Y007129D01*
X007042Y007129D02*
X007042Y007276D01*
X006932Y007350D02*
X006932Y007497D01*
X007042Y007460D02*
X006822Y007460D01*
X006932Y007350D01*
X008171Y008421D02*
X008208Y008384D01*
X008245Y008384D01*
X008282Y008421D01*
X008282Y008494D01*
X008318Y008531D01*
X008355Y008531D01*
X008392Y008494D01*
X008392Y008421D01*
X008355Y008384D01*
X008171Y008421D02*
X008171Y008494D01*
X008208Y008531D01*
X008245Y008605D02*
X008171Y008678D01*
X008245Y008752D01*
X008392Y008752D01*
X008392Y008826D02*
X008171Y008826D01*
X008245Y008899D01*
X008171Y008973D01*
X008392Y008973D01*
X008282Y009047D02*
X008282Y009194D01*
X008245Y009268D02*
X008282Y009305D01*
X008282Y009378D01*
X008318Y009415D01*
X008355Y009415D01*
X008392Y009378D01*
X008392Y009305D01*
X008355Y009268D01*
X008245Y009268D02*
X008208Y009268D01*
X008171Y009305D01*
X008171Y009378D01*
X008208Y009415D01*
X008171Y009157D02*
X008282Y009047D01*
X008392Y009157D02*
X008171Y009157D01*
X008282Y008752D02*
X008282Y008605D01*
X008245Y008605D02*
X008392Y008605D01*
X008392Y009710D02*
X008245Y009710D01*
X008318Y009710D02*
X008245Y009783D01*
X008245Y009820D01*
X008282Y009894D02*
X008245Y009931D01*
X008245Y010004D01*
X008282Y010041D01*
X008318Y010041D01*
X008318Y009894D01*
X008282Y009894D02*
X008355Y009894D01*
X008392Y009931D01*
X008392Y010004D01*
X008392Y010115D02*
X008392Y010225D01*
X008355Y010262D01*
X008318Y010225D01*
X008318Y010152D01*
X008282Y010115D01*
X008245Y010152D01*
X008245Y010262D01*
X008282Y010336D02*
X008245Y010373D01*
X008245Y010446D01*
X008282Y010483D01*
X008318Y010483D01*
X008318Y010336D01*
X008282Y010336D02*
X008355Y010336D01*
X008392Y010373D01*
X008392Y010446D01*
X008355Y010594D02*
X008208Y010594D01*
X008245Y010557D02*
X008245Y010631D01*
X008355Y010594D02*
X008392Y010631D01*
X005871Y013038D02*
X005834Y013002D01*
X005761Y013002D01*
X005724Y013038D01*
X005650Y013002D02*
X005503Y013002D01*
X005577Y013002D02*
X005577Y013222D01*
X005503Y013148D01*
X005429Y013112D02*
X005392Y013075D01*
X005282Y013075D01*
X005282Y013002D02*
X005282Y013222D01*
X005392Y013222D01*
X005429Y013185D01*
X005429Y013112D01*
X005356Y013075D02*
X005429Y013002D01*
X005724Y013185D02*
X005761Y013222D01*
X005834Y013222D01*
X005871Y013185D01*
X005871Y013148D01*
X005834Y013112D01*
X005871Y013075D01*
X005871Y013038D01*
X005834Y013112D02*
X005798Y013112D01*
X005874Y014301D02*
X005874Y014521D01*
X005763Y014411D01*
X005910Y014411D01*
X005689Y014301D02*
X005543Y014301D01*
X005616Y014301D02*
X005616Y014521D01*
X005543Y014448D01*
X005468Y014484D02*
X005468Y014411D01*
X005432Y014374D01*
X005322Y014374D01*
X005395Y014374D02*
X005468Y014301D01*
X005322Y014301D02*
X005322Y014521D01*
X005432Y014521D01*
X005468Y014484D01*
X005458Y015679D02*
X005458Y015899D01*
X005385Y015826D01*
X005311Y015862D02*
X005311Y015789D01*
X005274Y015752D01*
X005164Y015752D01*
X005164Y015679D02*
X005164Y015899D01*
X005274Y015899D01*
X005311Y015862D01*
X005237Y015752D02*
X005311Y015679D01*
X005385Y015679D02*
X005532Y015679D01*
X005606Y015715D02*
X005643Y015679D01*
X005716Y015679D01*
X005753Y015715D01*
X005753Y015752D01*
X005716Y015789D01*
X005606Y015789D01*
X005606Y015715D01*
X005606Y015789D02*
X005679Y015862D01*
X005753Y015899D01*
X006251Y015926D02*
X006287Y015889D01*
X006361Y015889D01*
X006397Y015926D01*
X006472Y015889D02*
X006618Y015889D01*
X006545Y015889D02*
X006545Y016109D01*
X006472Y016036D01*
X006397Y016072D02*
X006361Y016109D01*
X006287Y016109D01*
X006251Y016072D01*
X006251Y015926D01*
X006693Y015926D02*
X006693Y015889D01*
X006693Y015926D02*
X006839Y016072D01*
X006839Y016109D01*
X006693Y016109D01*
X006941Y016072D02*
X006941Y015926D01*
X006978Y015889D01*
X007051Y015889D01*
X007088Y015926D01*
X007162Y015889D02*
X007309Y015889D01*
X007236Y015889D02*
X007236Y016109D01*
X007162Y016036D01*
X007088Y016072D02*
X007051Y016109D01*
X006978Y016109D01*
X006941Y016072D01*
X007383Y016072D02*
X007383Y016036D01*
X007420Y015999D01*
X007493Y015999D01*
X007530Y015962D01*
X007530Y015926D01*
X007493Y015889D01*
X007420Y015889D01*
X007383Y015926D01*
X007383Y015962D01*
X007420Y015999D01*
X007493Y015999D02*
X007530Y016036D01*
X007530Y016072D01*
X007493Y016109D01*
X007420Y016109D01*
X007383Y016072D01*
X007650Y015755D02*
X007760Y015755D01*
X007797Y015718D01*
X007797Y015645D01*
X007760Y015608D01*
X007650Y015608D01*
X007723Y015608D02*
X007797Y015534D01*
X007871Y015534D02*
X008018Y015681D01*
X008018Y015718D01*
X007981Y015755D01*
X007908Y015755D01*
X007871Y015718D01*
X007871Y015534D02*
X008018Y015534D01*
X007650Y015534D02*
X007650Y015755D01*
X008845Y015481D02*
X009065Y015481D01*
X009065Y015554D02*
X009065Y015407D01*
X009028Y015333D02*
X008881Y015333D01*
X008845Y015296D01*
X008845Y015186D01*
X009065Y015186D01*
X009065Y015296D01*
X009028Y015333D01*
X008918Y015407D02*
X008845Y015481D01*
X008800Y016461D02*
X008800Y016571D01*
X008836Y016608D01*
X008910Y016608D01*
X008946Y016571D01*
X008946Y016461D01*
X008946Y016534D02*
X009020Y016608D01*
X008983Y016682D02*
X009020Y016719D01*
X009020Y016792D01*
X008983Y016829D01*
X008946Y016829D01*
X008910Y016792D01*
X008910Y016755D01*
X008910Y016792D02*
X008873Y016829D01*
X008836Y016829D01*
X008800Y016792D01*
X008800Y016719D01*
X008836Y016682D01*
X008800Y016461D02*
X009020Y016461D01*
X009906Y016825D02*
X009906Y017045D01*
X009833Y017045D02*
X009980Y017045D01*
X010054Y017045D02*
X010054Y016825D01*
X010054Y016899D02*
X010164Y016899D01*
X010200Y016935D01*
X010200Y017009D01*
X010164Y017045D01*
X010054Y017045D01*
X010275Y016788D02*
X010421Y016788D01*
X010496Y016862D02*
X010532Y016825D01*
X010606Y016825D01*
X010642Y016862D01*
X010642Y017045D01*
X010717Y017045D02*
X010827Y017045D01*
X010863Y017009D01*
X010863Y016935D01*
X010827Y016899D01*
X010717Y016899D01*
X010790Y016899D02*
X010863Y016825D01*
X010938Y016825D02*
X011084Y017045D01*
X011159Y017045D02*
X011269Y017045D01*
X011305Y017009D01*
X011305Y016862D01*
X011269Y016825D01*
X011159Y016825D01*
X011159Y017045D01*
X010938Y017045D02*
X011084Y016825D01*
X011380Y016862D02*
X011380Y017009D01*
X011416Y017045D01*
X011490Y017045D01*
X011526Y017009D01*
X011526Y016862D01*
X011490Y016825D01*
X011416Y016825D01*
X011380Y016862D01*
X010717Y016825D02*
X010717Y017045D01*
X010496Y017045D02*
X010496Y016862D01*
X010343Y018127D02*
X010196Y018127D01*
X010085Y018237D02*
X009975Y018237D01*
X009975Y018164D02*
X009975Y018384D01*
X010085Y018384D01*
X010122Y018347D01*
X010122Y018274D01*
X010085Y018237D01*
X009901Y018384D02*
X009754Y018384D01*
X009827Y018384D02*
X009827Y018164D01*
X010417Y018200D02*
X010417Y018384D01*
X010564Y018384D02*
X010564Y018200D01*
X010527Y018164D01*
X010454Y018164D01*
X010417Y018200D01*
X010638Y018384D02*
X010785Y018384D01*
X010711Y018384D02*
X010711Y018164D01*
X010859Y018164D02*
X011006Y018384D01*
X011080Y018384D02*
X011190Y018384D01*
X011227Y018347D01*
X011227Y018200D01*
X011190Y018164D01*
X011080Y018164D01*
X011080Y018384D01*
X010859Y018384D02*
X011006Y018164D01*
X011301Y018200D02*
X011448Y018347D01*
X011448Y018200D01*
X011411Y018164D01*
X011338Y018164D01*
X011301Y018200D01*
X011301Y018347D01*
X011338Y018384D01*
X011411Y018384D01*
X011448Y018347D01*
X012768Y016430D02*
X012731Y016393D01*
X012731Y016246D01*
X012768Y016209D01*
X012841Y016209D01*
X012878Y016246D01*
X012952Y016209D02*
X013099Y016209D01*
X013025Y016209D02*
X013025Y016430D01*
X012952Y016356D01*
X012878Y016393D02*
X012841Y016430D01*
X012768Y016430D01*
X013173Y016393D02*
X013210Y016430D01*
X013283Y016430D01*
X013320Y016393D01*
X013173Y016246D01*
X013210Y016209D01*
X013283Y016209D01*
X013320Y016246D01*
X013320Y016393D01*
X013173Y016393D02*
X013173Y016246D01*
X013226Y014703D02*
X013336Y014703D01*
X013372Y014666D01*
X013372Y014519D01*
X013336Y014483D01*
X013226Y014483D01*
X013226Y014703D01*
X013151Y014629D02*
X013151Y014483D01*
X013151Y014593D02*
X013005Y014593D01*
X013005Y014629D02*
X013078Y014703D01*
X013151Y014629D01*
X013005Y014629D02*
X013005Y014483D01*
X013447Y014483D02*
X013593Y014483D01*
X013520Y014483D02*
X013520Y014703D01*
X013447Y014629D01*
X014486Y014159D02*
X014486Y014085D01*
X014522Y014049D01*
X014486Y014159D02*
X014522Y014195D01*
X014559Y014195D01*
X014706Y014049D01*
X014706Y014195D01*
X014706Y013974D02*
X014706Y013828D01*
X014706Y013901D02*
X014486Y013901D01*
X014559Y013828D01*
X014522Y013753D02*
X014596Y013753D01*
X014632Y013717D01*
X014632Y013607D01*
X014632Y013680D02*
X014706Y013753D01*
X014706Y013607D02*
X014486Y013607D01*
X014486Y013717D01*
X014522Y013753D01*
X015905Y013909D02*
X015942Y013872D01*
X016089Y013872D01*
X016125Y013909D01*
X016125Y013982D01*
X016089Y014019D01*
X016125Y014093D02*
X016125Y014240D01*
X016125Y014166D02*
X015905Y014166D01*
X015979Y014093D01*
X015942Y014019D02*
X015905Y013982D01*
X015905Y013909D01*
X015942Y014314D02*
X015905Y014351D01*
X015905Y014424D01*
X015942Y014461D01*
X015979Y014461D01*
X016125Y014314D01*
X016125Y014461D01*
X016352Y013774D02*
X016315Y013738D01*
X016315Y013591D01*
X016352Y013554D01*
X016425Y013554D01*
X016462Y013591D01*
X016536Y013554D02*
X016683Y013554D01*
X016609Y013554D02*
X016609Y013774D01*
X016536Y013701D01*
X016462Y013738D02*
X016425Y013774D01*
X016352Y013774D01*
X016757Y013738D02*
X016794Y013774D01*
X016867Y013774D01*
X016904Y013738D01*
X016904Y013701D01*
X016867Y013664D01*
X016904Y013627D01*
X016904Y013591D01*
X016867Y013554D01*
X016794Y013554D01*
X016757Y013591D01*
X016830Y013664D02*
X016867Y013664D01*
X017491Y013672D02*
X017528Y013708D01*
X017601Y013708D01*
X017638Y013672D01*
X017638Y013562D01*
X017638Y013635D02*
X017711Y013708D01*
X017711Y013783D02*
X017564Y013929D01*
X017528Y013929D01*
X017491Y013893D01*
X017491Y013819D01*
X017528Y013783D01*
X017491Y013672D02*
X017491Y013562D01*
X017711Y013562D01*
X017711Y013783D02*
X017711Y013929D01*
X017674Y014004D02*
X017711Y014040D01*
X017711Y014114D01*
X017674Y014150D01*
X017601Y014150D01*
X017564Y014114D01*
X017564Y014077D01*
X017601Y014004D01*
X017491Y014004D01*
X017491Y014150D01*
X018698Y013199D02*
X018698Y013015D01*
X018734Y012979D01*
X018808Y012979D01*
X018844Y013015D01*
X018844Y013199D01*
X018918Y013162D02*
X018955Y013199D01*
X019029Y013199D01*
X019065Y013162D01*
X019139Y013162D02*
X019176Y013199D01*
X019250Y013199D01*
X019286Y013162D01*
X019286Y013126D01*
X019250Y013089D01*
X019286Y013052D01*
X019286Y013015D01*
X019250Y012979D01*
X019176Y012979D01*
X019139Y013015D01*
X019065Y013015D02*
X019065Y013052D01*
X019029Y013089D01*
X018955Y013089D01*
X018918Y013126D01*
X018918Y013162D01*
X018992Y013236D02*
X018992Y012942D01*
X019029Y012979D02*
X019065Y013015D01*
X019029Y012979D02*
X018955Y012979D01*
X018918Y013015D01*
X018656Y012897D02*
X018656Y012824D01*
X018619Y012787D01*
X018619Y012713D02*
X018656Y012676D01*
X018656Y012603D01*
X018619Y012566D01*
X018473Y012566D01*
X018436Y012603D01*
X018436Y012676D01*
X018473Y012713D01*
X018473Y012787D02*
X018436Y012824D01*
X018436Y012897D01*
X018473Y012934D01*
X018509Y012934D01*
X018546Y012897D01*
X018583Y012934D01*
X018619Y012934D01*
X018656Y012897D01*
X018546Y012897D02*
X018546Y012861D01*
X019213Y013089D02*
X019250Y013089D01*
X020018Y013909D02*
X019982Y013946D01*
X019982Y014019D01*
X020018Y014056D01*
X020018Y014130D02*
X019982Y014166D01*
X019982Y014240D01*
X020018Y014277D01*
X020055Y014277D01*
X020202Y014130D01*
X020202Y014277D01*
X020165Y014056D02*
X020202Y014019D01*
X020202Y013946D01*
X020165Y013909D01*
X020018Y013909D01*
X019947Y015298D02*
X019800Y015298D01*
X019873Y015298D02*
X019873Y015518D01*
X019800Y015445D01*
X019726Y015482D02*
X019689Y015518D01*
X019616Y015518D01*
X019579Y015482D01*
X019579Y015335D01*
X019616Y015298D01*
X019689Y015298D01*
X019726Y015335D01*
X020021Y015408D02*
X020168Y015408D01*
X020131Y015298D02*
X020131Y015518D01*
X020021Y015408D01*
X020001Y015707D02*
X020074Y015780D01*
X020074Y015927D01*
X020148Y015927D02*
X020258Y015927D01*
X020295Y015890D01*
X020295Y015817D01*
X020258Y015780D01*
X020148Y015780D01*
X020148Y015707D02*
X020148Y015927D01*
X020222Y015780D02*
X020295Y015707D01*
X020369Y015707D02*
X020516Y015707D01*
X020590Y015707D02*
X020590Y015927D01*
X020737Y015927D01*
X020664Y015817D02*
X020590Y015817D01*
X020516Y015927D02*
X020369Y015927D01*
X020369Y015707D01*
X020369Y015817D02*
X020443Y015817D01*
X020001Y015707D02*
X019927Y015780D01*
X019927Y015927D01*
X020903Y016439D02*
X020940Y016402D01*
X021086Y016402D01*
X021123Y016439D01*
X021123Y016512D01*
X021086Y016549D01*
X021123Y016623D02*
X020976Y016770D01*
X020940Y016770D01*
X020903Y016733D01*
X020903Y016659D01*
X020940Y016623D01*
X020940Y016549D02*
X020903Y016512D01*
X020903Y016439D01*
X021123Y016623D02*
X021123Y016770D01*
X021086Y016844D02*
X021123Y016880D01*
X021123Y016954D01*
X021086Y016991D01*
X021050Y016991D01*
X021013Y016954D01*
X021013Y016917D01*
X021013Y016954D02*
X020976Y016991D01*
X020940Y016991D01*
X020903Y016954D01*
X020903Y016880D01*
X020940Y016844D01*
X020558Y017385D02*
X020558Y017605D01*
X020448Y017495D01*
X020595Y017495D01*
X020374Y017568D02*
X020337Y017605D01*
X020264Y017605D01*
X020227Y017568D01*
X020227Y017422D01*
X020264Y017385D01*
X020337Y017385D01*
X020374Y017422D01*
X020025Y017456D02*
X020025Y017382D01*
X019989Y017346D01*
X019915Y017346D01*
X019879Y017382D01*
X019879Y017456D02*
X019952Y017492D01*
X019989Y017492D01*
X020025Y017456D01*
X020025Y017566D02*
X019879Y017566D01*
X019879Y017456D01*
X019805Y017529D02*
X019768Y017566D01*
X019694Y017566D01*
X019658Y017529D01*
X019658Y017382D01*
X019694Y017346D01*
X019768Y017346D01*
X019805Y017382D01*
X019777Y018553D02*
X019850Y018553D01*
X019887Y018589D01*
X019887Y018626D01*
X019850Y018663D01*
X019740Y018663D01*
X019740Y018589D01*
X019777Y018553D01*
X019740Y018663D02*
X019813Y018736D01*
X019887Y018773D01*
X019666Y018736D02*
X019629Y018773D01*
X019556Y018773D01*
X019519Y018736D01*
X019519Y018589D01*
X019556Y018553D01*
X019629Y018553D01*
X019666Y018589D01*
X019472Y018961D02*
X019509Y018998D01*
X019509Y019071D01*
X019472Y019108D01*
X019509Y019182D02*
X019509Y019329D01*
X019509Y019255D02*
X019289Y019255D01*
X019362Y019182D01*
X019325Y019108D02*
X019289Y019071D01*
X019289Y018998D01*
X019325Y018961D01*
X019472Y018961D01*
X019509Y019403D02*
X019509Y019550D01*
X019509Y019476D02*
X019289Y019476D01*
X019362Y019403D01*
X019259Y019537D02*
X019186Y019537D01*
X019149Y019574D01*
X019075Y019537D02*
X018928Y019537D01*
X019075Y019684D01*
X019075Y019720D01*
X019038Y019757D01*
X018965Y019757D01*
X018928Y019720D01*
X018854Y019720D02*
X018854Y019647D01*
X018817Y019610D01*
X018707Y019610D01*
X018707Y019537D02*
X018707Y019757D01*
X018817Y019757D01*
X018854Y019720D01*
X018781Y019610D02*
X018854Y019537D01*
X019149Y019720D02*
X019186Y019757D01*
X019259Y019757D01*
X019296Y019720D01*
X019296Y019684D01*
X019259Y019647D01*
X019296Y019610D01*
X019296Y019574D01*
X019259Y019537D01*
X019259Y019647D02*
X019223Y019647D01*
X018380Y019979D02*
X018160Y019979D01*
X018160Y020089D01*
X018197Y020126D01*
X018270Y020126D01*
X018307Y020089D01*
X018307Y019979D01*
X018307Y020052D02*
X018380Y020126D01*
X018380Y020200D02*
X018234Y020347D01*
X018197Y020347D01*
X018160Y020310D01*
X018160Y020237D01*
X018197Y020200D01*
X018380Y020200D02*
X018380Y020347D01*
X018380Y020421D02*
X018234Y020568D01*
X018197Y020568D01*
X018160Y020531D01*
X018160Y020458D01*
X018197Y020421D01*
X018380Y020421D02*
X018380Y020568D01*
X018407Y020811D02*
X018186Y020811D01*
X018186Y020921D01*
X018223Y020958D01*
X018297Y020958D01*
X018333Y020921D01*
X018333Y020811D01*
X018333Y020885D02*
X018407Y020958D01*
X018407Y021032D02*
X018407Y021179D01*
X018407Y021106D02*
X018186Y021106D01*
X018260Y021032D01*
X018260Y021253D02*
X018297Y021290D01*
X018297Y021400D01*
X018370Y021400D02*
X018223Y021400D01*
X018186Y021363D01*
X018186Y021290D01*
X018223Y021253D01*
X018260Y021253D01*
X018370Y021253D02*
X018407Y021290D01*
X018407Y021363D01*
X018370Y021400D01*
X018393Y021699D02*
X018246Y021699D01*
X018393Y021846D01*
X018393Y021882D01*
X018356Y021919D01*
X018283Y021919D01*
X018246Y021882D01*
X018172Y021882D02*
X018135Y021919D01*
X018062Y021919D01*
X018025Y021882D01*
X018025Y021736D01*
X018062Y021699D01*
X018135Y021699D01*
X018172Y021736D01*
X018467Y021736D02*
X018467Y021699D01*
X018467Y021736D02*
X018614Y021882D01*
X018614Y021919D01*
X018467Y021919D01*
X019476Y022159D02*
X019512Y022122D01*
X019659Y022122D01*
X019696Y022159D01*
X019696Y022232D01*
X019659Y022269D01*
X019659Y022343D02*
X019696Y022380D01*
X019696Y022453D01*
X019659Y022490D01*
X019622Y022490D01*
X019586Y022453D01*
X019586Y022417D01*
X019586Y022453D02*
X019549Y022490D01*
X019512Y022490D01*
X019476Y022453D01*
X019476Y022380D01*
X019512Y022343D01*
X019512Y022269D02*
X019476Y022232D01*
X019476Y022159D01*
X019643Y022151D02*
X019680Y022187D01*
X019827Y022041D01*
X019863Y022077D01*
X019863Y022151D01*
X019827Y022187D01*
X019680Y022187D01*
X019643Y022151D02*
X019643Y022077D01*
X019680Y022041D01*
X019827Y022041D01*
X019863Y021966D02*
X019863Y021820D01*
X019717Y021966D01*
X019680Y021966D01*
X019643Y021930D01*
X019643Y021856D01*
X019680Y021820D01*
X019680Y021745D02*
X019753Y021745D01*
X019790Y021709D01*
X019790Y021599D01*
X019790Y021672D02*
X019863Y021745D01*
X019863Y021599D02*
X019643Y021599D01*
X019643Y021709D01*
X019680Y021745D01*
X019659Y022564D02*
X019696Y022601D01*
X019696Y022674D01*
X019659Y022711D01*
X019622Y022711D01*
X019586Y022674D01*
X019586Y022638D01*
X019586Y022674D02*
X019549Y022711D01*
X019512Y022711D01*
X019476Y022674D01*
X019476Y022601D01*
X019512Y022564D01*
X019247Y023054D02*
X019173Y023054D01*
X019137Y023090D01*
X019137Y023127D01*
X019173Y023164D01*
X019247Y023164D01*
X019283Y023127D01*
X019283Y023090D01*
X019247Y023054D01*
X019247Y023164D02*
X019283Y023200D01*
X019283Y023237D01*
X019247Y023274D01*
X019173Y023274D01*
X019137Y023237D01*
X019137Y023200D01*
X019173Y023164D01*
X019062Y023200D02*
X019062Y023237D01*
X019026Y023274D01*
X018952Y023274D01*
X018916Y023237D01*
X018841Y023237D02*
X018805Y023274D01*
X018731Y023274D01*
X018695Y023237D01*
X018695Y023090D01*
X018731Y023054D01*
X018805Y023054D01*
X018841Y023090D01*
X018916Y023054D02*
X019062Y023200D01*
X019062Y023054D02*
X018916Y023054D01*
X017256Y020948D02*
X017109Y020948D01*
X017072Y020911D01*
X017072Y020837D01*
X017109Y020801D01*
X017146Y020801D01*
X017183Y020837D01*
X017183Y020948D01*
X017256Y020948D02*
X017293Y020911D01*
X017293Y020837D01*
X017256Y020801D01*
X017256Y020727D02*
X017293Y020690D01*
X017293Y020616D01*
X017256Y020580D01*
X017109Y020580D01*
X017072Y020616D01*
X017072Y020690D01*
X017109Y020727D01*
X016110Y020691D02*
X016073Y020728D01*
X016110Y020691D02*
X016110Y020618D01*
X016073Y020581D01*
X015926Y020581D01*
X015890Y020618D01*
X015890Y020691D01*
X015926Y020728D01*
X015926Y020802D02*
X015963Y020802D01*
X016000Y020839D01*
X016000Y020912D01*
X016037Y020949D01*
X016073Y020949D01*
X016110Y020912D01*
X016110Y020839D01*
X016073Y020802D01*
X016037Y020802D01*
X016000Y020839D01*
X016000Y020912D02*
X015963Y020949D01*
X015926Y020949D01*
X015890Y020912D01*
X015890Y020839D01*
X015926Y020802D01*
X011776Y021463D02*
X011776Y021500D01*
X011740Y021537D01*
X011630Y021537D01*
X011630Y021463D01*
X011666Y021427D01*
X011740Y021427D01*
X011776Y021463D01*
X011630Y021537D02*
X011703Y021610D01*
X011776Y021647D01*
X011555Y021610D02*
X011519Y021647D01*
X011445Y021647D01*
X011409Y021610D01*
X011334Y021610D02*
X011298Y021647D01*
X011224Y021647D01*
X011188Y021610D01*
X011188Y021463D01*
X011224Y021427D01*
X011298Y021427D01*
X011334Y021463D01*
X011409Y021427D02*
X011555Y021574D01*
X011555Y021610D01*
X011555Y021427D02*
X011409Y021427D01*
X010678Y022943D02*
X010714Y022980D01*
X010714Y023126D01*
X010678Y023163D01*
X010604Y023163D01*
X010568Y023126D01*
X010568Y023090D01*
X010604Y023053D01*
X010714Y023053D01*
X010678Y022943D02*
X010604Y022943D01*
X010568Y022980D01*
X010493Y022943D02*
X010347Y022943D01*
X010493Y023090D01*
X010493Y023126D01*
X010457Y023163D01*
X010383Y023163D01*
X010347Y023126D01*
X010272Y023126D02*
X010236Y023163D01*
X010162Y023163D01*
X010126Y023126D01*
X010126Y022980D01*
X010162Y022943D01*
X010236Y022943D01*
X010272Y022980D01*
X008262Y022403D02*
X008226Y022439D01*
X008079Y022439D01*
X008042Y022403D01*
X008042Y022329D01*
X008079Y022293D01*
X008116Y022293D01*
X008152Y022329D01*
X008152Y022439D01*
X008262Y022403D02*
X008262Y022329D01*
X008226Y022293D01*
X008262Y022218D02*
X008262Y022072D01*
X008262Y022145D02*
X008042Y022145D01*
X008116Y022072D01*
X008079Y021997D02*
X008042Y021961D01*
X008042Y021887D01*
X008079Y021851D01*
X008226Y021851D01*
X008262Y021887D01*
X008262Y021961D01*
X008226Y021997D01*
X007772Y022808D02*
X007809Y022845D01*
X007809Y022918D01*
X007772Y022955D01*
X007589Y022955D01*
X007625Y023029D02*
X007589Y023066D01*
X007589Y023139D01*
X007625Y023176D01*
X007662Y023176D01*
X007809Y023029D01*
X007809Y023176D01*
X007772Y022808D02*
X007589Y022808D01*
X004855Y020070D02*
X004891Y020033D01*
X004891Y019960D01*
X004855Y019923D01*
X004781Y019996D02*
X004781Y020033D01*
X004818Y020070D01*
X004855Y020070D01*
X004781Y020033D02*
X004745Y020070D01*
X004708Y020070D01*
X004671Y020033D01*
X004671Y019960D01*
X004708Y019923D01*
X004671Y019849D02*
X004671Y019775D01*
X004671Y019812D02*
X004855Y019812D01*
X004891Y019775D01*
X004891Y019739D01*
X004855Y019702D01*
X002142Y021767D02*
X002142Y021804D01*
X002105Y021841D01*
X001921Y021841D01*
X001921Y021877D02*
X001921Y021804D01*
X002032Y021952D02*
X002032Y022098D01*
X002142Y022062D02*
X001921Y022062D01*
X002032Y021952D01*
X002142Y021767D02*
X002105Y021731D01*
X004382Y015912D02*
X004492Y015912D01*
X004529Y015875D01*
X004529Y015802D01*
X004492Y015765D01*
X004382Y015765D01*
X004382Y015692D02*
X004382Y015912D01*
X004456Y015765D02*
X004529Y015692D01*
X004603Y015692D02*
X004750Y015692D01*
X004677Y015692D02*
X004677Y015912D01*
X004603Y015839D01*
X004824Y015802D02*
X004897Y015839D01*
X004934Y015839D01*
X004971Y015802D01*
X004971Y015729D01*
X004934Y015692D01*
X004861Y015692D01*
X004824Y015729D01*
X004824Y015802D02*
X004824Y015912D01*
X004971Y015912D01*
X002214Y015439D02*
X002214Y015365D01*
X002178Y015328D01*
X002104Y015328D02*
X002068Y015402D01*
X002068Y015439D01*
X002104Y015475D01*
X002178Y015475D01*
X002214Y015439D01*
X002104Y015328D02*
X001994Y015328D01*
X001994Y015475D01*
X001994Y015254D02*
X001994Y015181D01*
X001994Y015218D02*
X002178Y015218D01*
X002214Y015181D01*
X002214Y015144D01*
X002178Y015107D01*
X011833Y008321D02*
X011833Y008248D01*
X011870Y008211D01*
X011870Y008137D02*
X011833Y008100D01*
X011833Y007990D01*
X012053Y007990D01*
X012053Y008100D01*
X012016Y008137D01*
X011870Y008137D01*
X011833Y008321D02*
X011870Y008358D01*
X011906Y008358D01*
X012053Y008211D01*
X012053Y008358D01*
X014066Y008317D02*
X014102Y008354D01*
X014176Y008354D01*
X014213Y008317D01*
X014213Y008207D01*
X014286Y008207D02*
X014066Y008207D01*
X014066Y008317D01*
X014213Y008281D02*
X014286Y008354D01*
X014176Y008428D02*
X014176Y008575D01*
X014176Y008649D02*
X014139Y008723D01*
X014139Y008759D01*
X014176Y008796D01*
X014249Y008796D01*
X014286Y008759D01*
X014286Y008686D01*
X014249Y008649D01*
X014176Y008649D02*
X014066Y008649D01*
X014066Y008796D01*
X014066Y008538D02*
X014176Y008428D01*
X014286Y008538D02*
X014066Y008538D01*
X015376Y008321D02*
X015413Y008358D01*
X015450Y008358D01*
X015486Y008321D01*
X015523Y008358D01*
X015560Y008358D01*
X015596Y008321D01*
X015596Y008248D01*
X015560Y008211D01*
X015560Y008137D02*
X015413Y008137D01*
X015376Y008100D01*
X015376Y007990D01*
X015596Y007990D01*
X015596Y008100D01*
X015560Y008137D01*
X015413Y008211D02*
X015376Y008248D01*
X015376Y008321D01*
X015486Y008321D02*
X015486Y008285D01*
X017609Y008317D02*
X017646Y008354D01*
X017719Y008354D01*
X017756Y008317D01*
X017756Y008207D01*
X017829Y008207D02*
X017609Y008207D01*
X017609Y008317D01*
X017756Y008281D02*
X017829Y008354D01*
X017719Y008428D02*
X017719Y008575D01*
X017719Y008649D02*
X017719Y008759D01*
X017756Y008796D01*
X017793Y008796D01*
X017829Y008759D01*
X017829Y008686D01*
X017793Y008649D01*
X017719Y008649D01*
X017646Y008723D01*
X017609Y008796D01*
X017609Y008538D02*
X017719Y008428D01*
X017829Y008538D02*
X017609Y008538D01*
X018919Y008321D02*
X019030Y008211D01*
X019030Y008358D01*
X019140Y008321D02*
X018919Y008321D01*
X018956Y008137D02*
X018919Y008100D01*
X018919Y007990D01*
X019140Y007990D01*
X019140Y008100D01*
X019103Y008137D01*
X018956Y008137D01*
X021152Y008207D02*
X021152Y008317D01*
X021189Y008354D01*
X021263Y008354D01*
X021299Y008317D01*
X021299Y008207D01*
X021373Y008207D02*
X021152Y008207D01*
X021299Y008281D02*
X021373Y008354D01*
X021263Y008428D02*
X021263Y008575D01*
X021336Y008649D02*
X021373Y008649D01*
X021336Y008649D02*
X021189Y008796D01*
X021152Y008796D01*
X021152Y008649D01*
X021152Y008538D02*
X021263Y008428D01*
X021373Y008538D02*
X021152Y008538D01*
X022488Y010924D02*
X022635Y010924D01*
X022672Y010961D01*
X022672Y011034D01*
X022635Y011071D01*
X022635Y011145D02*
X022672Y011182D01*
X022672Y011255D01*
X022635Y011292D01*
X022598Y011292D01*
X022562Y011255D01*
X022562Y011218D01*
X022562Y011255D02*
X022525Y011292D01*
X022488Y011292D01*
X022452Y011255D01*
X022452Y011182D01*
X022488Y011145D01*
X022488Y011071D02*
X022452Y011034D01*
X022452Y010961D01*
X022488Y010924D01*
X022488Y011366D02*
X022525Y011366D01*
X022562Y011403D01*
X022562Y011476D01*
X022598Y011513D01*
X022635Y011513D01*
X022672Y011476D01*
X022672Y011403D01*
X022635Y011366D01*
X022598Y011366D01*
X022562Y011403D01*
X022562Y011476D02*
X022525Y011513D01*
X022488Y011513D01*
X022452Y011476D01*
X022452Y011403D01*
X022488Y011366D01*
X022252Y012017D02*
X022178Y012017D01*
X022141Y012054D01*
X022141Y012127D02*
X022215Y012164D01*
X022252Y012164D01*
X022288Y012127D01*
X022288Y012054D01*
X022252Y012017D01*
X022141Y012127D02*
X022141Y012238D01*
X022288Y012238D01*
X022067Y012201D02*
X022067Y012164D01*
X022031Y012127D01*
X022067Y012091D01*
X022067Y012054D01*
X022031Y012017D01*
X021957Y012017D01*
X021920Y012054D01*
X021846Y012054D02*
X021810Y012017D01*
X021736Y012017D01*
X021699Y012054D01*
X021699Y012201D01*
X021736Y012238D01*
X021810Y012238D01*
X021846Y012201D01*
X021920Y012201D02*
X021957Y012238D01*
X022031Y012238D01*
X022067Y012201D01*
X022031Y012127D02*
X021994Y012127D01*
X023889Y009324D02*
X023999Y009324D01*
X024036Y009287D01*
X024036Y009214D01*
X023999Y009177D01*
X023889Y009177D01*
X023889Y009104D02*
X023889Y009324D01*
X023962Y009177D02*
X024036Y009104D01*
X024110Y009141D02*
X024147Y009104D01*
X024220Y009104D01*
X024257Y009141D01*
X024257Y009214D01*
X024220Y009251D01*
X024183Y009251D01*
X024110Y009214D01*
X024110Y009324D01*
X024257Y009324D01*
X024658Y009337D02*
X024658Y009117D01*
X024658Y009191D02*
X024768Y009191D01*
X024805Y009227D01*
X024805Y009301D01*
X024768Y009337D01*
X024658Y009337D01*
X024731Y009191D02*
X024805Y009117D01*
X024879Y009227D02*
X025025Y009227D01*
X024989Y009117D02*
X024989Y009337D01*
X024879Y009227D01*
X024882Y008486D02*
X024956Y008486D01*
X024992Y008449D01*
X024992Y008413D01*
X024956Y008376D01*
X024992Y008339D01*
X024992Y008303D01*
X024956Y008266D01*
X024882Y008266D01*
X024845Y008303D01*
X024772Y008303D02*
X024772Y008266D01*
X024735Y008266D01*
X024735Y008303D01*
X024772Y008303D01*
X024661Y008303D02*
X024624Y008266D01*
X024551Y008266D01*
X024514Y008303D01*
X024587Y008376D02*
X024624Y008376D01*
X024661Y008339D01*
X024661Y008303D01*
X024624Y008376D02*
X024661Y008413D01*
X024661Y008449D01*
X024624Y008486D01*
X024551Y008486D01*
X024514Y008449D01*
X024845Y008449D02*
X024882Y008486D01*
X024919Y008376D02*
X024956Y008376D01*
X025066Y008413D02*
X025140Y008266D01*
X025213Y008413D01*
X026832Y006739D02*
X026906Y006739D01*
X026869Y006739D02*
X026869Y006555D01*
X026832Y006519D01*
X026796Y006519D01*
X026759Y006555D01*
X026980Y006519D02*
X026980Y006739D01*
X027090Y006739D01*
X027127Y006702D01*
X027127Y006629D01*
X027090Y006592D01*
X026980Y006592D01*
X027201Y006665D02*
X027274Y006739D01*
X027274Y006519D01*
X027201Y006519D02*
X027348Y006519D01*
X027301Y008187D02*
X027228Y008187D01*
X027191Y008224D01*
X027191Y008297D02*
X027265Y008334D01*
X027301Y008334D01*
X027338Y008297D01*
X027338Y008224D01*
X027301Y008187D01*
X027412Y008187D02*
X027449Y008187D01*
X027449Y008224D01*
X027412Y008224D01*
X027412Y008187D01*
X027523Y008224D02*
X027669Y008371D01*
X027669Y008224D01*
X027633Y008187D01*
X027559Y008187D01*
X027523Y008224D01*
X027523Y008371D01*
X027559Y008407D01*
X027633Y008407D01*
X027669Y008371D01*
X027744Y008334D02*
X027817Y008187D01*
X027890Y008334D01*
X027338Y008407D02*
X027191Y008407D01*
X027191Y008297D01*
X027176Y009310D02*
X027176Y009420D01*
X027213Y009457D01*
X027286Y009457D01*
X027323Y009420D01*
X027323Y009310D01*
X027323Y009383D02*
X027396Y009457D01*
X027396Y009531D02*
X027249Y009677D01*
X027213Y009677D01*
X027176Y009641D01*
X027176Y009567D01*
X027213Y009531D01*
X027396Y009531D02*
X027396Y009677D01*
X027360Y009752D02*
X027396Y009788D01*
X027396Y009862D01*
X027360Y009898D01*
X027323Y009898D01*
X027286Y009862D01*
X027286Y009752D01*
X027360Y009752D01*
X027286Y009752D02*
X027213Y009825D01*
X027176Y009898D01*
X027609Y009862D02*
X027646Y009898D01*
X027683Y009898D01*
X027719Y009862D01*
X027719Y009788D01*
X027683Y009752D01*
X027646Y009752D01*
X027609Y009788D01*
X027609Y009862D01*
X027719Y009862D02*
X027756Y009898D01*
X027793Y009898D01*
X027829Y009862D01*
X027829Y009788D01*
X027793Y009752D01*
X027756Y009752D01*
X027719Y009788D01*
X027683Y009677D02*
X027646Y009677D01*
X027609Y009641D01*
X027609Y009567D01*
X027646Y009531D01*
X027646Y009457D02*
X027719Y009457D01*
X027756Y009420D01*
X027756Y009310D01*
X027756Y009383D02*
X027829Y009457D01*
X027829Y009531D02*
X027683Y009677D01*
X027829Y009677D02*
X027829Y009531D01*
X027646Y009457D02*
X027609Y009420D01*
X027609Y009310D01*
X027829Y009310D01*
X027396Y009310D02*
X027176Y009310D01*
X026349Y010099D02*
X026312Y010062D01*
X026239Y010062D01*
X026202Y010099D01*
X026349Y010246D01*
X026349Y010099D01*
X026349Y010246D02*
X026312Y010282D01*
X026239Y010282D01*
X026202Y010246D01*
X026202Y010099D01*
X026128Y010172D02*
X025981Y010172D01*
X026091Y010282D01*
X026091Y010062D01*
X025907Y010099D02*
X025870Y010062D01*
X025797Y010062D01*
X025760Y010099D01*
X025760Y010246D01*
X025797Y010282D01*
X025870Y010282D01*
X025907Y010246D01*
X025870Y010416D02*
X025907Y010453D01*
X025870Y010416D02*
X025797Y010416D01*
X025760Y010453D01*
X025760Y010600D01*
X025797Y010637D01*
X025870Y010637D01*
X025907Y010600D01*
X025981Y010526D02*
X026091Y010637D01*
X026091Y010416D01*
X026202Y010416D02*
X026349Y010416D01*
X026275Y010416D02*
X026275Y010637D01*
X026202Y010563D01*
X026128Y010526D02*
X025981Y010526D01*
X025968Y011992D02*
X025822Y011992D01*
X025785Y012029D01*
X025785Y012102D01*
X025822Y012139D01*
X025895Y012213D02*
X025785Y012323D01*
X026005Y012323D01*
X026005Y012434D02*
X025858Y012581D01*
X025822Y012581D01*
X025785Y012544D01*
X025785Y012471D01*
X025822Y012434D01*
X025895Y012360D02*
X025895Y012213D01*
X025968Y012139D02*
X026005Y012102D01*
X026005Y012029D01*
X025968Y011992D01*
X026005Y012434D02*
X026005Y012581D01*
X026114Y012621D02*
X026114Y012841D01*
X026225Y012841D01*
X026261Y012805D01*
X026261Y012731D01*
X026225Y012694D01*
X026114Y012694D01*
X026188Y012694D02*
X026261Y012621D01*
X026335Y012658D02*
X026372Y012621D01*
X026445Y012621D01*
X026482Y012658D01*
X026482Y012694D01*
X026445Y012731D01*
X026409Y012731D01*
X026445Y012731D02*
X026482Y012768D01*
X026482Y012805D01*
X026445Y012841D01*
X026372Y012841D01*
X026335Y012805D01*
X026556Y012768D02*
X026630Y012841D01*
X026630Y012621D01*
X026703Y012621D02*
X026556Y012621D01*
X027084Y012638D02*
X027084Y012565D01*
X027121Y012528D01*
X027121Y012454D02*
X027194Y012454D01*
X027231Y012417D01*
X027231Y012307D01*
X027304Y012307D02*
X027084Y012307D01*
X027084Y012417D01*
X027121Y012454D01*
X027231Y012381D02*
X027304Y012454D01*
X027304Y012528D02*
X027157Y012675D01*
X027121Y012675D01*
X027084Y012638D01*
X027084Y012749D02*
X027084Y012896D01*
X027121Y012896D01*
X027268Y012749D01*
X027304Y012749D01*
X027304Y012675D02*
X027304Y012528D01*
X027557Y012565D02*
X027593Y012528D01*
X027557Y012565D02*
X027557Y012638D01*
X027593Y012675D01*
X027630Y012675D01*
X027777Y012528D01*
X027777Y012675D01*
X027740Y012749D02*
X027777Y012786D01*
X027777Y012859D01*
X027740Y012896D01*
X027593Y012896D01*
X027557Y012859D01*
X027557Y012786D01*
X027593Y012749D01*
X027630Y012749D01*
X027667Y012786D01*
X027667Y012896D01*
X027667Y012454D02*
X027703Y012417D01*
X027703Y012307D01*
X027777Y012307D02*
X027557Y012307D01*
X027557Y012417D01*
X027593Y012454D01*
X027667Y012454D01*
X027703Y012381D02*
X027777Y012454D01*
X027186Y013213D02*
X026966Y013213D01*
X026966Y013323D01*
X027003Y013360D01*
X027076Y013360D01*
X027113Y013323D01*
X027113Y013213D01*
X027113Y013286D02*
X027186Y013360D01*
X027149Y013434D02*
X027186Y013471D01*
X027186Y013544D01*
X027149Y013581D01*
X027113Y013581D01*
X027076Y013544D01*
X027076Y013507D01*
X027076Y013544D02*
X027039Y013581D01*
X027003Y013581D01*
X026966Y013544D01*
X026966Y013471D01*
X027003Y013434D01*
X027003Y013655D02*
X026966Y013692D01*
X026966Y013765D01*
X027003Y013802D01*
X027039Y013802D01*
X027076Y013765D01*
X027113Y013802D01*
X027149Y013802D01*
X027186Y013765D01*
X027186Y013692D01*
X027149Y013655D01*
X027076Y013728D02*
X027076Y013765D01*
X027073Y013921D02*
X027073Y014032D01*
X027037Y014068D01*
X026963Y014068D01*
X026927Y014032D01*
X026927Y013921D01*
X027147Y013921D01*
X027073Y013995D02*
X027147Y014068D01*
X027110Y014142D02*
X027147Y014179D01*
X027147Y014253D01*
X027110Y014289D01*
X027073Y014289D01*
X027037Y014253D01*
X027037Y014216D01*
X027037Y014253D02*
X027000Y014289D01*
X026963Y014289D01*
X026927Y014253D01*
X026927Y014179D01*
X026963Y014142D01*
X026963Y014363D02*
X026927Y014400D01*
X026927Y014474D01*
X026963Y014510D01*
X027000Y014510D01*
X027147Y014363D01*
X027147Y014510D01*
X027795Y015431D02*
X027831Y015431D01*
X027868Y015468D01*
X027868Y015541D01*
X027905Y015578D01*
X027942Y015578D01*
X027978Y015541D01*
X027978Y015468D01*
X027942Y015431D01*
X027795Y015431D02*
X027758Y015468D01*
X027758Y015541D01*
X027795Y015578D01*
X027758Y015652D02*
X027758Y015762D01*
X027795Y015799D01*
X027868Y015799D01*
X027905Y015762D01*
X027905Y015652D01*
X027978Y015652D02*
X027758Y015652D01*
X027758Y015873D02*
X027758Y015983D01*
X027795Y016020D01*
X027868Y016020D01*
X027905Y015983D01*
X027905Y015873D01*
X027978Y015873D02*
X027758Y015873D01*
X027905Y015947D02*
X027978Y016020D01*
X027978Y016094D02*
X027758Y016094D01*
X027868Y016131D02*
X027978Y016241D01*
X027978Y016315D02*
X027978Y016462D01*
X027978Y016389D02*
X027758Y016389D01*
X027831Y016315D01*
X027758Y016241D02*
X027905Y016094D01*
X028210Y015234D02*
X028173Y015198D01*
X028173Y015161D01*
X028210Y015124D01*
X028283Y015124D01*
X028320Y015088D01*
X028320Y015051D01*
X028283Y015014D01*
X028210Y015014D01*
X028173Y015051D01*
X028210Y015234D02*
X028283Y015234D01*
X028320Y015198D01*
X028394Y015234D02*
X028394Y015014D01*
X028394Y015088D02*
X028504Y015088D01*
X028541Y015124D01*
X028541Y015198D01*
X028504Y015234D01*
X028394Y015234D01*
X028615Y015234D02*
X028615Y015014D01*
X028615Y015088D02*
X028762Y015234D01*
X028836Y015198D02*
X028873Y015234D01*
X028946Y015234D01*
X028983Y015198D01*
X028983Y015161D01*
X028836Y015014D01*
X028983Y015014D01*
X029057Y015124D02*
X029204Y015124D01*
X028762Y015014D02*
X028652Y015124D01*
X029984Y015122D02*
X030021Y015085D01*
X030094Y015085D01*
X030131Y015048D01*
X030131Y015012D01*
X030094Y014975D01*
X030021Y014975D01*
X029984Y015012D01*
X029984Y015122D02*
X029984Y015158D01*
X030021Y015195D01*
X030094Y015195D01*
X030131Y015158D01*
X030205Y015195D02*
X030205Y014975D01*
X030205Y015048D02*
X030315Y015048D01*
X030352Y015085D01*
X030352Y015158D01*
X030315Y015195D01*
X030205Y015195D01*
X030426Y015195D02*
X030426Y014975D01*
X030426Y015048D02*
X030573Y015195D01*
X030647Y015158D02*
X030684Y015195D01*
X030757Y015195D01*
X030794Y015158D01*
X030794Y015122D01*
X030647Y014975D01*
X030794Y014975D01*
X030868Y015085D02*
X031015Y015085D01*
X030941Y015158D02*
X030941Y015012D01*
X030573Y014975D02*
X030463Y015085D01*
X028396Y013671D02*
X028249Y013524D01*
X028286Y013487D01*
X028359Y013487D01*
X028396Y013524D01*
X028396Y013671D01*
X028359Y013707D01*
X028286Y013707D01*
X028249Y013671D01*
X028249Y013524D01*
X028175Y013524D02*
X028138Y013487D01*
X028065Y013487D01*
X028028Y013524D01*
X027954Y013487D02*
X027881Y013561D01*
X027917Y013561D02*
X027807Y013561D01*
X027807Y013487D02*
X027807Y013707D01*
X027917Y013707D01*
X027954Y013671D01*
X027954Y013597D01*
X027917Y013561D01*
X028028Y013671D02*
X028065Y013707D01*
X028138Y013707D01*
X028175Y013671D01*
X028175Y013634D01*
X028138Y013597D01*
X028175Y013561D01*
X028175Y013524D01*
X028138Y013597D02*
X028102Y013597D01*
X031469Y010873D02*
X031579Y010873D01*
X031616Y010836D01*
X031616Y010763D01*
X031579Y010726D01*
X031469Y010726D01*
X031542Y010726D02*
X031616Y010653D01*
X031690Y010763D02*
X031837Y010763D01*
X031911Y010836D02*
X031947Y010873D01*
X032021Y010873D01*
X032058Y010836D01*
X032058Y010799D01*
X031911Y010653D01*
X032058Y010653D01*
X031800Y010653D02*
X031800Y010873D01*
X031690Y010763D01*
X031469Y010653D02*
X031469Y010873D01*
X030304Y009797D02*
X030194Y009686D01*
X030341Y009686D01*
X030304Y009576D02*
X030304Y009797D01*
X030120Y009686D02*
X029973Y009686D01*
X030083Y009797D01*
X030083Y009576D01*
X029899Y009613D02*
X029862Y009576D01*
X029789Y009576D01*
X029752Y009613D01*
X029752Y009760D01*
X029789Y009797D01*
X029862Y009797D01*
X029899Y009760D01*
X033516Y010653D02*
X033516Y010873D01*
X033626Y010873D01*
X033663Y010836D01*
X033663Y010763D01*
X033626Y010726D01*
X033516Y010726D01*
X033589Y010726D02*
X033663Y010653D01*
X033737Y010763D02*
X033884Y010763D01*
X033958Y010836D02*
X033995Y010873D01*
X034068Y010873D01*
X034105Y010836D01*
X034105Y010799D01*
X034068Y010763D01*
X034105Y010726D01*
X034105Y010689D01*
X034068Y010653D01*
X033995Y010653D01*
X033958Y010689D01*
X034031Y010763D02*
X034068Y010763D01*
X033847Y010873D02*
X033737Y010763D01*
X033847Y010653D02*
X033847Y010873D01*
X033809Y006926D02*
X033736Y006853D01*
X033662Y006890D02*
X033625Y006926D01*
X033552Y006926D01*
X033515Y006890D01*
X033515Y006743D01*
X033552Y006706D01*
X033625Y006706D01*
X033662Y006743D01*
X033736Y006706D02*
X033883Y006706D01*
X033809Y006706D02*
X033809Y006926D01*
X030296Y004316D02*
X030260Y004353D01*
X030113Y004353D01*
X030076Y004316D01*
X030076Y004243D01*
X030113Y004206D01*
X030150Y004206D01*
X030186Y004243D01*
X030186Y004353D01*
X030296Y004316D02*
X030296Y004243D01*
X030260Y004206D01*
X030260Y004132D02*
X030296Y004095D01*
X030296Y004022D01*
X030260Y003985D01*
X030296Y003911D02*
X030223Y003837D01*
X030223Y003874D02*
X030223Y003764D01*
X030296Y003764D02*
X030076Y003764D01*
X030076Y003874D01*
X030113Y003911D01*
X030186Y003911D01*
X030223Y003874D01*
X030113Y003985D02*
X030076Y004022D01*
X030076Y004095D01*
X030113Y004132D01*
X030150Y004132D01*
X030186Y004095D01*
X030223Y004132D01*
X030260Y004132D01*
X030186Y004095D02*
X030186Y004058D01*
X029952Y002341D02*
X029878Y002304D01*
X029805Y002231D01*
X029915Y002231D01*
X029952Y002194D01*
X029952Y002157D01*
X029915Y002120D01*
X029842Y002120D01*
X029805Y002157D01*
X029805Y002231D01*
X029731Y002341D02*
X029731Y002120D01*
X029657Y002194D01*
X029584Y002120D01*
X029584Y002341D01*
X029510Y002304D02*
X029473Y002341D01*
X029400Y002341D01*
X029363Y002304D01*
X029363Y002267D01*
X029400Y002231D01*
X029473Y002231D01*
X029510Y002194D01*
X029510Y002157D01*
X029473Y002120D01*
X029400Y002120D01*
X029363Y002157D01*
X031483Y002403D02*
X031629Y002403D01*
X031556Y002403D02*
X031556Y002183D01*
X031704Y002183D02*
X031704Y002403D01*
X031814Y002403D01*
X031850Y002367D01*
X031850Y002293D01*
X031814Y002257D01*
X031704Y002257D01*
X031924Y002147D02*
X032071Y002147D01*
X032145Y002293D02*
X032292Y002293D01*
X032366Y002293D02*
X032440Y002330D01*
X032477Y002330D01*
X032513Y002293D01*
X032513Y002220D01*
X032477Y002183D01*
X032403Y002183D01*
X032366Y002220D01*
X032366Y002293D02*
X032366Y002403D01*
X032513Y002403D01*
X032587Y002403D02*
X032587Y002257D01*
X032661Y002183D01*
X032734Y002257D01*
X032734Y002403D01*
X032808Y002367D02*
X032845Y002403D01*
X032919Y002403D01*
X032955Y002367D01*
X032808Y002220D01*
X032845Y002183D01*
X032919Y002183D01*
X032955Y002220D01*
X032955Y002367D01*
X032808Y002367D02*
X032808Y002220D01*
X032219Y002220D02*
X032219Y002367D01*
X038467Y005820D02*
X038467Y005893D01*
X038467Y005856D02*
X038650Y005856D01*
X038687Y005820D01*
X038687Y005783D01*
X038650Y005746D01*
X038687Y005967D02*
X038540Y006114D01*
X038503Y006114D01*
X038467Y006077D01*
X038467Y006004D01*
X038503Y005967D01*
X038687Y005967D02*
X038687Y006114D01*
X025493Y004316D02*
X025493Y004243D01*
X025457Y004206D01*
X025420Y004206D01*
X025383Y004243D01*
X025383Y004316D01*
X025420Y004353D01*
X025457Y004353D01*
X025493Y004316D01*
X025383Y004316D02*
X025346Y004353D01*
X025310Y004353D01*
X025273Y004316D01*
X025273Y004243D01*
X025310Y004206D01*
X025346Y004206D01*
X025383Y004243D01*
X025346Y004132D02*
X025383Y004095D01*
X025420Y004132D01*
X025457Y004132D01*
X025493Y004095D01*
X025493Y004022D01*
X025457Y003985D01*
X025493Y003911D02*
X025420Y003837D01*
X025420Y003874D02*
X025420Y003764D01*
X025493Y003764D02*
X025273Y003764D01*
X025273Y003874D01*
X025310Y003911D01*
X025383Y003911D01*
X025420Y003874D01*
X025310Y003985D02*
X025273Y004022D01*
X025273Y004095D01*
X025310Y004132D01*
X025346Y004132D01*
X025383Y004095D02*
X025383Y004058D01*
X025148Y002341D02*
X025002Y002341D01*
X025002Y002231D01*
X025075Y002267D01*
X025112Y002267D01*
X025148Y002231D01*
X025148Y002157D01*
X025112Y002120D01*
X025038Y002120D01*
X025002Y002157D01*
X024927Y002120D02*
X024927Y002341D01*
X024781Y002341D02*
X024781Y002120D01*
X024854Y002194D01*
X024927Y002120D01*
X024707Y002157D02*
X024670Y002120D01*
X024596Y002120D01*
X024560Y002157D01*
X024596Y002231D02*
X024560Y002267D01*
X024560Y002304D01*
X024596Y002341D01*
X024670Y002341D01*
X024707Y002304D01*
X024670Y002231D02*
X024707Y002194D01*
X024707Y002157D01*
X024670Y002231D02*
X024596Y002231D01*
X020887Y003764D02*
X020667Y003764D01*
X020667Y003874D01*
X020703Y003911D01*
X020777Y003911D01*
X020814Y003874D01*
X020814Y003764D01*
X020814Y003837D02*
X020887Y003911D01*
X020850Y003985D02*
X020887Y004022D01*
X020887Y004095D01*
X020850Y004132D01*
X020814Y004132D01*
X020777Y004095D01*
X020777Y004058D01*
X020777Y004095D02*
X020740Y004132D01*
X020703Y004132D01*
X020667Y004095D01*
X020667Y004022D01*
X020703Y003985D01*
X020667Y004206D02*
X020667Y004353D01*
X020703Y004353D01*
X020850Y004206D01*
X020887Y004206D01*
X020466Y002341D02*
X020356Y002231D01*
X020503Y002231D01*
X020466Y002341D02*
X020466Y002120D01*
X020282Y002120D02*
X020282Y002341D01*
X020135Y002341D02*
X020135Y002120D01*
X020208Y002194D01*
X020282Y002120D01*
X020061Y002157D02*
X020024Y002120D01*
X019951Y002120D01*
X019914Y002157D01*
X019951Y002231D02*
X020024Y002231D01*
X020061Y002194D01*
X020061Y002157D01*
X019951Y002231D02*
X019914Y002267D01*
X019914Y002304D01*
X019951Y002341D01*
X020024Y002341D01*
X020061Y002304D01*
X016202Y003764D02*
X015982Y003764D01*
X015982Y003874D01*
X016018Y003911D01*
X016092Y003911D01*
X016128Y003874D01*
X016128Y003764D01*
X016128Y003837D02*
X016202Y003911D01*
X016165Y003985D02*
X016202Y004022D01*
X016202Y004095D01*
X016165Y004132D01*
X016128Y004132D01*
X016092Y004095D01*
X016092Y004058D01*
X016092Y004095D02*
X016055Y004132D01*
X016018Y004132D01*
X015982Y004095D01*
X015982Y004022D01*
X016018Y003985D01*
X016092Y004206D02*
X016092Y004316D01*
X016128Y004353D01*
X016165Y004353D01*
X016202Y004316D01*
X016202Y004243D01*
X016165Y004206D01*
X016092Y004206D01*
X016018Y004279D01*
X015982Y004353D01*
X015820Y002341D02*
X015857Y002304D01*
X015857Y002267D01*
X015820Y002231D01*
X015857Y002194D01*
X015857Y002157D01*
X015820Y002120D01*
X015747Y002120D01*
X015710Y002157D01*
X015636Y002120D02*
X015636Y002341D01*
X015710Y002304D02*
X015747Y002341D01*
X015820Y002341D01*
X015820Y002231D02*
X015784Y002231D01*
X015636Y002120D02*
X015563Y002194D01*
X015489Y002120D01*
X015489Y002341D01*
X015415Y002304D02*
X015378Y002341D01*
X015305Y002341D01*
X015268Y002304D01*
X015268Y002267D01*
X015305Y002231D01*
X015378Y002231D01*
X015415Y002194D01*
X015415Y002157D01*
X015378Y002120D01*
X015305Y002120D01*
X015268Y002157D01*
X011556Y003764D02*
X011336Y003764D01*
X011336Y003874D01*
X011373Y003911D01*
X011446Y003911D01*
X011483Y003874D01*
X011483Y003764D01*
X011483Y003837D02*
X011556Y003911D01*
X011520Y003985D02*
X011556Y004022D01*
X011556Y004095D01*
X011520Y004132D01*
X011483Y004132D01*
X011446Y004095D01*
X011446Y004058D01*
X011446Y004095D02*
X011409Y004132D01*
X011373Y004132D01*
X011336Y004095D01*
X011336Y004022D01*
X011373Y003985D01*
X011336Y004206D02*
X011446Y004206D01*
X011409Y004279D01*
X011409Y004316D01*
X011446Y004353D01*
X011520Y004353D01*
X011556Y004316D01*
X011556Y004243D01*
X011520Y004206D01*
X011336Y004206D02*
X011336Y004353D01*
X011175Y002341D02*
X011101Y002341D01*
X011065Y002304D01*
X010990Y002341D02*
X010990Y002120D01*
X010917Y002194D01*
X010844Y002120D01*
X010844Y002341D01*
X010769Y002304D02*
X010733Y002341D01*
X010659Y002341D01*
X010623Y002304D01*
X010623Y002267D01*
X010659Y002231D01*
X010733Y002231D01*
X010769Y002194D01*
X010769Y002157D01*
X010733Y002120D01*
X010659Y002120D01*
X010623Y002157D01*
X011065Y002120D02*
X011211Y002267D01*
X011211Y002304D01*
X011175Y002341D01*
X011211Y002120D02*
X011065Y002120D01*
X015941Y012651D02*
X016087Y012651D01*
X016124Y012688D01*
X016124Y012761D01*
X016087Y012798D01*
X016124Y012872D02*
X015977Y013019D01*
X015941Y013019D01*
X015904Y012982D01*
X015904Y012908D01*
X015941Y012872D01*
X015941Y012798D02*
X015904Y012761D01*
X015904Y012688D01*
X015941Y012651D01*
X016124Y012872D02*
X016124Y013019D01*
X016087Y013093D02*
X016124Y013129D01*
X016124Y013203D01*
X016087Y013240D01*
X016014Y013240D01*
X015977Y013203D01*
X015977Y013166D01*
X016014Y013093D01*
X015904Y013093D01*
X015904Y013240D01*
X021469Y015807D02*
X021505Y015771D01*
X021579Y015771D01*
X021616Y015807D01*
X021690Y015771D02*
X021837Y015918D01*
X021837Y015954D01*
X021800Y015991D01*
X021726Y015991D01*
X021690Y015954D01*
X021616Y015954D02*
X021579Y015991D01*
X021505Y015991D01*
X021469Y015954D01*
X021469Y015807D01*
X021690Y015771D02*
X021837Y015771D01*
X021911Y015881D02*
X022058Y015881D01*
X022021Y015991D02*
X021911Y015881D01*
X022021Y015771D02*
X022021Y015991D01*
X023904Y016345D02*
X023941Y016309D01*
X024014Y016309D01*
X024051Y016345D01*
X024125Y016309D02*
X024272Y016455D01*
X024272Y016492D01*
X024235Y016529D01*
X024162Y016529D01*
X024125Y016492D01*
X024051Y016492D02*
X024014Y016529D01*
X023941Y016529D01*
X023904Y016492D01*
X023904Y016345D01*
X024125Y016309D02*
X024272Y016309D01*
X024346Y016309D02*
X024493Y016455D01*
X024493Y016492D01*
X024456Y016529D01*
X024383Y016529D01*
X024346Y016492D01*
X024346Y016309D02*
X024493Y016309D01*
X023714Y019393D02*
X023640Y019393D01*
X023604Y019429D01*
X023750Y019576D01*
X023750Y019429D01*
X023714Y019393D01*
X023604Y019429D02*
X023604Y019576D01*
X023640Y019613D01*
X023714Y019613D01*
X023750Y019576D01*
X023529Y019576D02*
X023493Y019613D01*
X023419Y019613D01*
X023383Y019576D01*
X023308Y019576D02*
X023272Y019613D01*
X023198Y019613D01*
X023162Y019576D01*
X023162Y019429D01*
X023198Y019393D01*
X023272Y019393D01*
X023308Y019429D01*
X023383Y019393D02*
X023529Y019540D01*
X023529Y019576D01*
X023529Y019393D02*
X023383Y019393D01*
X024066Y019543D02*
X024102Y019507D01*
X024249Y019507D01*
X024286Y019543D01*
X024286Y019617D01*
X024249Y019653D01*
X024286Y019728D02*
X024139Y019874D01*
X024102Y019874D01*
X024066Y019838D01*
X024066Y019764D01*
X024102Y019728D01*
X024102Y019653D02*
X024066Y019617D01*
X024066Y019543D01*
X024286Y019728D02*
X024286Y019874D01*
X024286Y019949D02*
X024286Y020095D01*
X024286Y020022D02*
X024066Y020022D01*
X024139Y019949D01*
X024195Y020317D02*
X024379Y020317D01*
X024415Y020354D01*
X024415Y020427D01*
X024379Y020464D01*
X024195Y020464D01*
X024232Y020538D02*
X024195Y020575D01*
X024195Y020648D01*
X024232Y020685D01*
X024305Y020648D02*
X024305Y020575D01*
X024268Y020538D01*
X024232Y020538D01*
X024158Y020612D02*
X024452Y020612D01*
X024415Y020648D02*
X024379Y020685D01*
X024342Y020685D01*
X024305Y020648D01*
X024415Y020648D02*
X024415Y020575D01*
X024379Y020538D01*
X024305Y020759D02*
X024305Y020906D01*
X024195Y020869D02*
X024305Y020759D01*
X024415Y020869D02*
X024195Y020869D01*
X022816Y019604D02*
X022816Y019457D01*
X022816Y019383D02*
X022743Y019310D01*
X022743Y019347D02*
X022743Y019236D01*
X022816Y019236D02*
X022596Y019236D01*
X022596Y019347D01*
X022633Y019383D01*
X022706Y019383D01*
X022743Y019347D01*
X022669Y019457D02*
X022596Y019531D01*
X022816Y019531D01*
X021648Y019547D02*
X021611Y019584D01*
X021575Y019584D01*
X021538Y019547D01*
X021538Y019437D01*
X021611Y019437D01*
X021648Y019473D01*
X021648Y019547D01*
X021538Y019437D02*
X021465Y019510D01*
X021428Y019584D01*
X021465Y019363D02*
X021538Y019363D01*
X021575Y019326D01*
X021575Y019216D01*
X021575Y019289D02*
X021648Y019363D01*
X021648Y019216D02*
X021428Y019216D01*
X021428Y019326D01*
X021465Y019363D01*
X020955Y018852D02*
X020955Y018631D01*
X020882Y018631D02*
X021028Y018631D01*
X020882Y018778D02*
X020955Y018852D01*
X020807Y018815D02*
X020771Y018852D01*
X020697Y018852D01*
X020661Y018815D01*
X020586Y018815D02*
X020586Y018742D01*
X020550Y018705D01*
X020440Y018705D01*
X020513Y018705D02*
X020586Y018631D01*
X020661Y018631D02*
X020807Y018778D01*
X020807Y018815D01*
X020807Y018631D02*
X020661Y018631D01*
X020586Y018815D02*
X020550Y018852D01*
X020440Y018852D01*
X020440Y018631D01*
X020430Y018828D02*
X020430Y018865D01*
X020577Y019012D01*
X020577Y019049D01*
X020430Y019049D01*
X020356Y019012D02*
X020320Y019049D01*
X020246Y019049D01*
X020209Y019012D01*
X020209Y018865D01*
X020246Y018828D01*
X020320Y018828D01*
X020356Y018865D01*
X020356Y019668D02*
X020282Y019742D01*
X020319Y019742D02*
X020209Y019742D01*
X020209Y019668D02*
X020209Y019889D01*
X020319Y019889D01*
X020356Y019852D01*
X020356Y019778D01*
X020319Y019742D01*
X020430Y019815D02*
X020503Y019889D01*
X020503Y019668D01*
X020430Y019668D02*
X020577Y019668D01*
X020651Y019705D02*
X020651Y019742D01*
X020688Y019778D01*
X020761Y019778D01*
X020798Y019742D01*
X020798Y019705D01*
X020761Y019668D01*
X020688Y019668D01*
X020651Y019705D01*
X020688Y019778D02*
X020651Y019815D01*
X020651Y019852D01*
X020688Y019889D01*
X020761Y019889D01*
X020798Y019852D01*
X020798Y019815D01*
X020761Y019778D01*
X027758Y019260D02*
X027795Y019297D01*
X027942Y019150D01*
X027978Y019187D01*
X027978Y019260D01*
X027942Y019297D01*
X027795Y019297D01*
X027758Y019260D02*
X027758Y019187D01*
X027795Y019150D01*
X027942Y019150D01*
X027978Y019076D02*
X027905Y019002D01*
X027905Y019039D02*
X027905Y018929D01*
X027978Y018929D02*
X027758Y018929D01*
X027758Y019039D01*
X027795Y019076D01*
X027868Y019076D01*
X027905Y019039D01*
X027978Y018855D02*
X027868Y018745D01*
X027905Y018708D02*
X027758Y018855D01*
X027758Y018708D02*
X027978Y018708D01*
X027868Y018634D02*
X027905Y018597D01*
X027905Y018487D01*
X027978Y018487D02*
X027758Y018487D01*
X027758Y018597D01*
X027795Y018634D01*
X027868Y018634D01*
X027905Y018413D02*
X027942Y018413D01*
X027978Y018376D01*
X027978Y018303D01*
X027942Y018266D01*
X027868Y018303D02*
X027868Y018376D01*
X027905Y018413D01*
X027795Y018413D02*
X027758Y018376D01*
X027758Y018303D01*
X027795Y018266D01*
X027831Y018266D01*
X027868Y018303D01*
X035655Y020171D02*
X035655Y020391D01*
X035765Y020391D01*
X035802Y020354D01*
X035802Y020281D01*
X035765Y020244D01*
X035655Y020244D01*
X035729Y020244D02*
X035802Y020171D01*
X035876Y020281D02*
X036023Y020281D01*
X036097Y020281D02*
X036244Y020281D01*
X036207Y020391D02*
X036097Y020281D01*
X036207Y020171D02*
X036207Y020391D01*
X035986Y020391D02*
X035876Y020281D01*
X035986Y020171D02*
X035986Y020391D01*
X039333Y031297D02*
X039333Y031444D01*
X039333Y031371D02*
X039553Y031371D01*
X039553Y031518D02*
X039333Y031518D01*
X039333Y031629D01*
X039370Y031665D01*
X039443Y031665D01*
X039480Y031629D01*
X039480Y031518D01*
X039590Y031739D02*
X039590Y031886D01*
X039516Y031960D02*
X039553Y031997D01*
X039553Y032071D01*
X039516Y032107D01*
X039443Y032107D01*
X039443Y032034D01*
X039370Y032107D02*
X039333Y032071D01*
X039333Y031997D01*
X039370Y031960D01*
X039516Y031960D01*
X039553Y032181D02*
X039333Y032181D01*
X039553Y032328D01*
X039333Y032328D01*
X039333Y032402D02*
X039333Y032513D01*
X039370Y032549D01*
X039516Y032549D01*
X039553Y032513D01*
X039553Y032402D01*
X039333Y032402D01*
X039370Y032623D02*
X039333Y032660D01*
X039333Y032734D01*
X039370Y032770D01*
X039406Y032770D01*
X039553Y032623D01*
X039553Y032770D01*
X019969Y030218D02*
X019969Y030181D01*
X019822Y030034D01*
X019822Y029998D01*
X019748Y029998D02*
X019675Y030071D01*
X019711Y030071D02*
X019601Y030071D01*
X019601Y029998D02*
X019601Y030218D01*
X019711Y030218D01*
X019748Y030181D01*
X019748Y030108D01*
X019711Y030071D01*
X019822Y030218D02*
X019969Y030218D01*
X019827Y028998D02*
X019863Y028962D01*
X019863Y028888D01*
X019827Y028852D01*
X019680Y028998D01*
X019827Y028998D01*
X019827Y028852D02*
X019680Y028852D01*
X019643Y028888D01*
X019643Y028962D01*
X019680Y028998D01*
X019753Y028777D02*
X019753Y028631D01*
X019643Y028741D01*
X019863Y028741D01*
X019863Y028556D02*
X019790Y028483D01*
X019790Y028520D02*
X019790Y028410D01*
X019863Y028410D02*
X019643Y028410D01*
X019643Y028520D01*
X019680Y028556D01*
X019753Y028556D01*
X019790Y028520D01*
X018485Y028525D02*
X018485Y028599D01*
X018449Y028635D01*
X018449Y028709D02*
X018485Y028746D01*
X018485Y028820D01*
X018449Y028856D01*
X018412Y028856D01*
X018375Y028820D01*
X018375Y028783D01*
X018375Y028820D02*
X018339Y028856D01*
X018302Y028856D01*
X018265Y028820D01*
X018265Y028746D01*
X018302Y028709D01*
X018302Y028635D02*
X018265Y028599D01*
X018265Y028525D01*
X018302Y028488D01*
X018449Y028488D01*
X018485Y028525D01*
X018375Y028930D02*
X018375Y029077D01*
X018485Y029040D02*
X018265Y029040D01*
X018375Y028930D01*
X016946Y029578D02*
X016946Y029651D01*
X016909Y029688D01*
X016909Y029762D02*
X016946Y029799D01*
X016946Y029872D01*
X016909Y029909D01*
X016872Y029909D01*
X016835Y029872D01*
X016835Y029835D01*
X016835Y029872D02*
X016799Y029909D01*
X016762Y029909D01*
X016725Y029872D01*
X016725Y029799D01*
X016762Y029762D01*
X016762Y029688D02*
X016725Y029651D01*
X016725Y029578D01*
X016762Y029541D01*
X016909Y029541D01*
X016946Y029578D01*
X016946Y029983D02*
X016946Y030130D01*
X016946Y030056D02*
X016725Y030056D01*
X016799Y029983D01*
X016766Y030333D02*
X016546Y030333D01*
X016546Y030443D01*
X016583Y030480D01*
X016656Y030480D01*
X016693Y030443D01*
X016693Y030333D01*
X016693Y030407D02*
X016766Y030480D01*
X016656Y030554D02*
X016656Y030701D01*
X016620Y030775D02*
X016546Y030849D01*
X016766Y030849D01*
X016766Y030922D02*
X016766Y030775D01*
X016766Y030664D02*
X016546Y030664D01*
X016656Y030554D01*
X017325Y030904D02*
X017325Y031051D01*
X017325Y031125D02*
X017325Y031235D01*
X017362Y031272D01*
X017435Y031272D01*
X017472Y031235D01*
X017472Y031125D01*
X017545Y031125D02*
X017325Y031125D01*
X017325Y030977D02*
X017545Y030977D01*
X017582Y031346D02*
X017582Y031493D01*
X017435Y031567D02*
X017435Y031714D01*
X017362Y031788D02*
X017325Y031824D01*
X017325Y031898D01*
X017362Y031935D01*
X017398Y031935D01*
X017435Y031898D01*
X017472Y031935D01*
X017508Y031935D01*
X017545Y031898D01*
X017545Y031824D01*
X017508Y031788D01*
X017435Y031861D02*
X017435Y031898D01*
X017472Y032009D02*
X017545Y032082D01*
X017472Y032156D01*
X017325Y032156D01*
X017362Y032230D02*
X017325Y032266D01*
X017325Y032340D01*
X017362Y032376D01*
X017398Y032376D01*
X017435Y032340D01*
X017472Y032376D01*
X017508Y032376D01*
X017545Y032340D01*
X017545Y032266D01*
X017508Y032230D01*
X017435Y032303D02*
X017435Y032340D01*
X017362Y032451D02*
X017325Y032487D01*
X017325Y032561D01*
X017362Y032597D01*
X017398Y032597D01*
X017435Y032561D01*
X017472Y032597D01*
X017508Y032597D01*
X017545Y032561D01*
X017545Y032487D01*
X017508Y032451D01*
X017435Y032524D02*
X017435Y032561D01*
X017472Y032009D02*
X017325Y032009D01*
X017362Y031640D02*
X017508Y031640D01*
X015310Y029555D02*
X015273Y029555D01*
X015126Y029702D01*
X015089Y029702D01*
X015089Y029555D01*
X015089Y029407D02*
X015310Y029407D01*
X015310Y029334D02*
X015310Y029481D01*
X015163Y029334D02*
X015089Y029407D01*
X015126Y029260D02*
X015200Y029260D01*
X015236Y029223D01*
X015236Y029113D01*
X015236Y029186D02*
X015310Y029260D01*
X015310Y029113D02*
X015089Y029113D01*
X015089Y029223D01*
X015126Y029260D01*
X013364Y029302D02*
X013364Y029376D01*
X013328Y029413D01*
X013328Y029487D02*
X013364Y029523D01*
X013364Y029597D01*
X013328Y029634D01*
X013291Y029634D01*
X013254Y029597D01*
X013254Y029560D01*
X013254Y029597D02*
X013218Y029634D01*
X013181Y029634D01*
X013144Y029597D01*
X013144Y029523D01*
X013181Y029487D01*
X013181Y029413D02*
X013144Y029376D01*
X013144Y029302D01*
X013181Y029266D01*
X013328Y029266D01*
X013364Y029302D01*
X013364Y029708D02*
X013218Y029855D01*
X013181Y029855D01*
X013144Y029818D01*
X013144Y029744D01*
X013181Y029708D01*
X013364Y029708D02*
X013364Y029855D01*
X010682Y026706D02*
X010718Y026669D01*
X010572Y026522D01*
X010608Y026486D01*
X010682Y026486D01*
X010718Y026522D01*
X010718Y026669D01*
X010682Y026706D02*
X010608Y026706D01*
X010572Y026669D01*
X010572Y026522D01*
X010497Y026522D02*
X010461Y026486D01*
X010387Y026486D01*
X010351Y026522D01*
X010277Y026522D02*
X010240Y026486D01*
X010166Y026486D01*
X010130Y026522D01*
X010130Y026669D01*
X010166Y026706D01*
X010240Y026706D01*
X010277Y026669D01*
X010351Y026669D02*
X010387Y026706D01*
X010461Y026706D01*
X010497Y026669D01*
X010497Y026632D01*
X010461Y026596D01*
X010497Y026559D01*
X010497Y026522D01*
X010461Y026596D02*
X010424Y026596D01*
X007395Y030388D02*
X007432Y030425D01*
X007432Y030498D01*
X007395Y030535D01*
X007322Y030535D01*
X007285Y030498D01*
X007285Y030425D01*
X007322Y030388D01*
X007395Y030388D01*
X007211Y030388D02*
X007175Y030425D01*
X007175Y030572D01*
X007211Y030535D02*
X007138Y030535D01*
X006843Y030572D02*
X006806Y030608D01*
X006733Y030608D01*
X006696Y030572D01*
X006696Y030425D01*
X006733Y030388D01*
X006806Y030388D01*
X006843Y030425D01*
X006843Y030498D01*
X006769Y030498D01*
X006622Y030498D02*
X006475Y030498D01*
X006475Y030535D02*
X006548Y030608D01*
X006622Y030535D01*
X006622Y030388D01*
X006475Y030388D02*
X006475Y030535D01*
X006401Y030608D02*
X006254Y030608D01*
X006327Y030608D02*
X006327Y030388D01*
X006143Y030425D02*
X006143Y030608D01*
X006106Y030608D02*
X006180Y030608D01*
X006143Y030425D02*
X006106Y030388D01*
X006070Y030388D01*
X006033Y030425D01*
X005996Y030175D02*
X006032Y030138D01*
X006032Y030028D01*
X005886Y030028D02*
X005886Y030175D01*
X005996Y030175D01*
X005811Y030248D02*
X005811Y030028D01*
X005665Y030028D02*
X005665Y030248D01*
X005738Y030175D01*
X005811Y030248D01*
X005738Y030388D02*
X005701Y030425D01*
X005701Y030572D01*
X005665Y030535D02*
X005738Y030535D01*
X005590Y030535D02*
X005480Y030535D01*
X005444Y030498D01*
X005444Y030425D01*
X005480Y030388D01*
X005590Y030388D01*
X005517Y030248D02*
X005590Y030175D01*
X005590Y030028D01*
X005590Y030138D02*
X005444Y030138D01*
X005444Y030175D02*
X005517Y030248D01*
X005444Y030175D02*
X005444Y030028D01*
X005369Y030028D02*
X005296Y030102D01*
X005333Y030102D02*
X005223Y030102D01*
X005223Y030028D02*
X005223Y030248D01*
X005333Y030248D01*
X005369Y030212D01*
X005369Y030138D01*
X005333Y030102D01*
X005148Y030138D02*
X005075Y030138D01*
X005148Y030138D02*
X005148Y030065D01*
X005112Y030028D01*
X005038Y030028D01*
X005002Y030065D01*
X005002Y030212D01*
X005038Y030248D01*
X005112Y030248D01*
X005148Y030212D01*
X005148Y030388D02*
X005148Y030498D01*
X005112Y030535D01*
X005002Y030535D01*
X005002Y030388D01*
X004927Y030388D02*
X004927Y030498D01*
X004891Y030535D01*
X004781Y030535D01*
X004781Y030388D01*
X004706Y030425D02*
X004706Y030498D01*
X004670Y030535D01*
X004596Y030535D01*
X004560Y030498D01*
X004560Y030425D01*
X004596Y030388D01*
X004670Y030388D01*
X004706Y030425D01*
X004670Y030248D02*
X004560Y030248D01*
X004560Y030028D01*
X004560Y030102D02*
X004670Y030102D01*
X004706Y030138D01*
X004706Y030212D01*
X004670Y030248D01*
X004781Y030212D02*
X004781Y030065D01*
X004817Y030028D01*
X004891Y030028D01*
X004927Y030065D01*
X004927Y030212D01*
X004891Y030248D01*
X004817Y030248D01*
X004781Y030212D01*
X004633Y030102D02*
X004706Y030028D01*
X004485Y030138D02*
X004449Y030102D01*
X004339Y030102D01*
X004339Y030028D02*
X004339Y030248D01*
X004449Y030248D01*
X004485Y030212D01*
X004485Y030138D01*
X004449Y030388D02*
X004485Y030425D01*
X004449Y030388D02*
X004375Y030388D01*
X004339Y030425D01*
X004339Y030572D01*
X004375Y030608D01*
X004449Y030608D01*
X004485Y030572D01*
X004773Y031156D02*
X004773Y031376D01*
X004846Y031376D02*
X004699Y031376D01*
X004920Y031376D02*
X005030Y031376D01*
X005067Y031339D01*
X005067Y031266D01*
X005030Y031229D01*
X004920Y031229D01*
X004920Y031156D02*
X004920Y031376D01*
X005141Y031119D02*
X005288Y031119D01*
X005362Y031193D02*
X005399Y031156D01*
X005472Y031156D01*
X005509Y031193D01*
X005509Y031266D01*
X005436Y031266D01*
X005509Y031339D02*
X005472Y031376D01*
X005399Y031376D01*
X005362Y031339D01*
X005362Y031193D01*
X005583Y031156D02*
X005583Y031376D01*
X005730Y031156D01*
X005730Y031376D01*
X005804Y031376D02*
X005914Y031376D01*
X005951Y031339D01*
X005951Y031193D01*
X005914Y031156D01*
X005804Y031156D01*
X005804Y031376D01*
X006025Y031339D02*
X006062Y031376D01*
X006135Y031376D01*
X006172Y031339D01*
X006172Y031303D01*
X006135Y031266D01*
X006172Y031229D01*
X006172Y031193D01*
X006135Y031156D01*
X006062Y031156D01*
X006025Y031193D01*
X006099Y031266D02*
X006135Y031266D01*
X005369Y030498D02*
X005369Y030462D01*
X005223Y030462D01*
X005223Y030498D02*
X005259Y030535D01*
X005333Y030535D01*
X005369Y030498D01*
X005333Y030388D02*
X005259Y030388D01*
X005223Y030425D01*
X005223Y030498D01*
X008766Y032200D02*
X008803Y032164D01*
X008876Y032164D01*
X008913Y032200D01*
X008913Y032237D01*
X008876Y032274D01*
X008803Y032274D01*
X008766Y032310D01*
X008766Y032347D01*
X008803Y032384D01*
X008876Y032384D01*
X008913Y032347D01*
X008987Y032384D02*
X008987Y032164D01*
X009060Y032237D01*
X009134Y032164D01*
X009134Y032384D01*
X009208Y032347D02*
X009208Y032310D01*
X009245Y032274D01*
X009318Y032274D01*
X009355Y032237D01*
X009355Y032200D01*
X009318Y032164D01*
X009245Y032164D01*
X009208Y032200D01*
X009208Y032237D01*
X009245Y032274D01*
X009318Y032274D02*
X009355Y032310D01*
X009355Y032347D01*
X009318Y032384D01*
X009245Y032384D01*
X009208Y032347D01*
D12*
X005689Y019186D02*
X005628Y019186D01*
X005567Y019125D01*
X005567Y019004D01*
X005506Y018943D01*
X005446Y018943D01*
X005385Y019004D01*
X005385Y019125D01*
X005446Y019186D01*
X005689Y019186D02*
X005749Y019125D01*
X005749Y019004D01*
X005689Y018943D01*
X005567Y018823D02*
X005628Y018763D01*
X005628Y018641D01*
X005567Y018581D01*
X005506Y018581D01*
X005506Y018823D01*
X005446Y018823D02*
X005567Y018823D01*
X005446Y018823D02*
X005385Y018763D01*
X005385Y018641D01*
X005385Y018461D02*
X005628Y018461D01*
X005628Y018340D02*
X005506Y018461D01*
X005628Y018340D02*
X005628Y018279D01*
X005628Y018159D02*
X005628Y018098D01*
X005385Y018098D01*
X005385Y018159D02*
X005385Y018037D01*
X005446Y017917D02*
X005385Y017856D01*
X005385Y017674D01*
X005567Y017674D01*
X005628Y017735D01*
X005628Y017856D01*
X005506Y017856D02*
X005506Y017674D01*
X005385Y017555D02*
X005385Y017433D01*
X005385Y017494D02*
X005749Y017494D01*
X005749Y017555D01*
X005506Y017856D02*
X005446Y017917D01*
X005749Y018098D02*
X005810Y018098D01*
X005628Y016950D02*
X005264Y016950D01*
X005385Y016950D02*
X005385Y016768D01*
X005446Y016708D01*
X005567Y016708D01*
X005628Y016768D01*
X005628Y016950D01*
X005567Y016588D02*
X005446Y016588D01*
X005385Y016527D01*
X005385Y016406D01*
X005446Y016345D01*
X005567Y016345D01*
X005628Y016406D01*
X005628Y016527D01*
X005567Y016588D01*
X005506Y016225D02*
X005628Y016104D01*
X005628Y016043D01*
X005628Y015923D02*
X005628Y015802D01*
X005689Y015863D02*
X005446Y015863D01*
X005385Y015802D01*
X005385Y016225D02*
X005628Y016225D01*
X005001Y012572D02*
X004698Y012572D01*
X004637Y012511D01*
X004637Y012390D01*
X004698Y012329D01*
X005001Y012329D01*
X004940Y012209D02*
X004880Y012209D01*
X004819Y012149D01*
X004819Y012027D01*
X004758Y011967D01*
X004698Y011967D01*
X004637Y012027D01*
X004637Y012149D01*
X004698Y012209D01*
X004940Y012209D02*
X005001Y012149D01*
X005001Y012027D01*
X004940Y011967D01*
X005001Y011847D02*
X005001Y011665D01*
X004940Y011604D01*
X004880Y011604D01*
X004819Y011665D01*
X004819Y011847D01*
X004637Y011847D02*
X004637Y011665D01*
X004698Y011604D01*
X004758Y011604D01*
X004819Y011665D01*
X004637Y011847D02*
X005001Y011847D01*
D13*
X005606Y010539D02*
X007969Y010539D01*
X007969Y008177D01*
X005606Y008177D01*
X005606Y010539D01*
X004721Y009406D02*
X004721Y007161D01*
X004268Y005106D02*
X006630Y005106D01*
X006630Y002744D01*
X004268Y002744D01*
X004268Y005106D01*
X004858Y003925D02*
X004860Y003973D01*
X004866Y004021D01*
X004876Y004068D01*
X004889Y004114D01*
X004907Y004159D01*
X004927Y004203D01*
X004952Y004245D01*
X004980Y004284D01*
X005010Y004321D01*
X005044Y004355D01*
X005081Y004387D01*
X005119Y004416D01*
X005160Y004441D01*
X005203Y004463D01*
X005248Y004481D01*
X005294Y004495D01*
X005341Y004506D01*
X005389Y004513D01*
X005437Y004516D01*
X005485Y004515D01*
X005533Y004510D01*
X005581Y004501D01*
X005627Y004489D01*
X005672Y004472D01*
X005716Y004452D01*
X005758Y004429D01*
X005798Y004402D01*
X005836Y004372D01*
X005871Y004339D01*
X005903Y004303D01*
X005933Y004265D01*
X005959Y004224D01*
X005981Y004181D01*
X006001Y004137D01*
X006016Y004092D01*
X006028Y004045D01*
X006036Y003997D01*
X006040Y003949D01*
X006040Y003901D01*
X006036Y003853D01*
X006028Y003805D01*
X006016Y003758D01*
X006001Y003713D01*
X005981Y003669D01*
X005959Y003626D01*
X005933Y003585D01*
X005903Y003547D01*
X005871Y003511D01*
X005836Y003478D01*
X005798Y003448D01*
X005758Y003421D01*
X005716Y003398D01*
X005672Y003378D01*
X005627Y003361D01*
X005581Y003349D01*
X005533Y003340D01*
X005485Y003335D01*
X005437Y003334D01*
X005389Y003337D01*
X005341Y003344D01*
X005294Y003355D01*
X005248Y003369D01*
X005203Y003387D01*
X005160Y003409D01*
X005119Y003434D01*
X005081Y003463D01*
X005044Y003495D01*
X005010Y003529D01*
X004980Y003566D01*
X004952Y003605D01*
X004927Y003647D01*
X004907Y003691D01*
X004889Y003736D01*
X004876Y003782D01*
X004866Y003829D01*
X004860Y003877D01*
X004858Y003925D01*
X001886Y007161D02*
X001886Y008146D01*
X002004Y008146D01*
X002004Y008421D01*
X001886Y008421D01*
X001886Y009445D01*
X002343Y009516D02*
X002378Y009689D01*
X002378Y009693D02*
X002307Y009693D01*
X006196Y009358D02*
X006198Y009406D01*
X006204Y009454D01*
X006214Y009501D01*
X006227Y009547D01*
X006245Y009592D01*
X006265Y009636D01*
X006290Y009678D01*
X006318Y009717D01*
X006348Y009754D01*
X006382Y009788D01*
X006419Y009820D01*
X006457Y009849D01*
X006498Y009874D01*
X006541Y009896D01*
X006586Y009914D01*
X006632Y009928D01*
X006679Y009939D01*
X006727Y009946D01*
X006775Y009949D01*
X006823Y009948D01*
X006871Y009943D01*
X006919Y009934D01*
X006965Y009922D01*
X007010Y009905D01*
X007054Y009885D01*
X007096Y009862D01*
X007136Y009835D01*
X007174Y009805D01*
X007209Y009772D01*
X007241Y009736D01*
X007271Y009698D01*
X007297Y009657D01*
X007319Y009614D01*
X007339Y009570D01*
X007354Y009525D01*
X007366Y009478D01*
X007374Y009430D01*
X007378Y009382D01*
X007378Y009334D01*
X007374Y009286D01*
X007366Y009238D01*
X007354Y009191D01*
X007339Y009146D01*
X007319Y009102D01*
X007297Y009059D01*
X007271Y009018D01*
X007241Y008980D01*
X007209Y008944D01*
X007174Y008911D01*
X007136Y008881D01*
X007096Y008854D01*
X007054Y008831D01*
X007010Y008811D01*
X006965Y008794D01*
X006919Y008782D01*
X006871Y008773D01*
X006823Y008768D01*
X006775Y008767D01*
X006727Y008770D01*
X006679Y008777D01*
X006632Y008788D01*
X006586Y008802D01*
X006541Y008820D01*
X006498Y008842D01*
X006457Y008867D01*
X006419Y008896D01*
X006382Y008928D01*
X006348Y008962D01*
X006318Y008999D01*
X006290Y009038D01*
X006265Y009080D01*
X006245Y009124D01*
X006227Y009169D01*
X006214Y009215D01*
X006204Y009262D01*
X006198Y009310D01*
X006196Y009358D01*
X008913Y005106D02*
X011276Y005106D01*
X011276Y002744D01*
X008913Y002744D01*
X008913Y005106D01*
X009504Y003925D02*
X009506Y003973D01*
X009512Y004021D01*
X009522Y004068D01*
X009535Y004114D01*
X009553Y004159D01*
X009573Y004203D01*
X009598Y004245D01*
X009626Y004284D01*
X009656Y004321D01*
X009690Y004355D01*
X009727Y004387D01*
X009765Y004416D01*
X009806Y004441D01*
X009849Y004463D01*
X009894Y004481D01*
X009940Y004495D01*
X009987Y004506D01*
X010035Y004513D01*
X010083Y004516D01*
X010131Y004515D01*
X010179Y004510D01*
X010227Y004501D01*
X010273Y004489D01*
X010318Y004472D01*
X010362Y004452D01*
X010404Y004429D01*
X010444Y004402D01*
X010482Y004372D01*
X010517Y004339D01*
X010549Y004303D01*
X010579Y004265D01*
X010605Y004224D01*
X010627Y004181D01*
X010647Y004137D01*
X010662Y004092D01*
X010674Y004045D01*
X010682Y003997D01*
X010686Y003949D01*
X010686Y003901D01*
X010682Y003853D01*
X010674Y003805D01*
X010662Y003758D01*
X010647Y003713D01*
X010627Y003669D01*
X010605Y003626D01*
X010579Y003585D01*
X010549Y003547D01*
X010517Y003511D01*
X010482Y003478D01*
X010444Y003448D01*
X010404Y003421D01*
X010362Y003398D01*
X010318Y003378D01*
X010273Y003361D01*
X010227Y003349D01*
X010179Y003340D01*
X010131Y003335D01*
X010083Y003334D01*
X010035Y003337D01*
X009987Y003344D01*
X009940Y003355D01*
X009894Y003369D01*
X009849Y003387D01*
X009806Y003409D01*
X009765Y003434D01*
X009727Y003463D01*
X009690Y003495D01*
X009656Y003529D01*
X009626Y003566D01*
X009598Y003605D01*
X009573Y003647D01*
X009553Y003691D01*
X009535Y003736D01*
X009522Y003782D01*
X009512Y003829D01*
X009506Y003877D01*
X009504Y003925D01*
X013559Y002744D02*
X015921Y002744D01*
X015921Y005106D01*
X013559Y005106D01*
X013559Y002744D01*
X014149Y003925D02*
X014151Y003973D01*
X014157Y004021D01*
X014167Y004068D01*
X014180Y004114D01*
X014198Y004159D01*
X014218Y004203D01*
X014243Y004245D01*
X014271Y004284D01*
X014301Y004321D01*
X014335Y004355D01*
X014372Y004387D01*
X014410Y004416D01*
X014451Y004441D01*
X014494Y004463D01*
X014539Y004481D01*
X014585Y004495D01*
X014632Y004506D01*
X014680Y004513D01*
X014728Y004516D01*
X014776Y004515D01*
X014824Y004510D01*
X014872Y004501D01*
X014918Y004489D01*
X014963Y004472D01*
X015007Y004452D01*
X015049Y004429D01*
X015089Y004402D01*
X015127Y004372D01*
X015162Y004339D01*
X015194Y004303D01*
X015224Y004265D01*
X015250Y004224D01*
X015272Y004181D01*
X015292Y004137D01*
X015307Y004092D01*
X015319Y004045D01*
X015327Y003997D01*
X015331Y003949D01*
X015331Y003901D01*
X015327Y003853D01*
X015319Y003805D01*
X015307Y003758D01*
X015292Y003713D01*
X015272Y003669D01*
X015250Y003626D01*
X015224Y003585D01*
X015194Y003547D01*
X015162Y003511D01*
X015127Y003478D01*
X015089Y003448D01*
X015049Y003421D01*
X015007Y003398D01*
X014963Y003378D01*
X014918Y003361D01*
X014872Y003349D01*
X014824Y003340D01*
X014776Y003335D01*
X014728Y003334D01*
X014680Y003337D01*
X014632Y003344D01*
X014585Y003355D01*
X014539Y003369D01*
X014494Y003387D01*
X014451Y003409D01*
X014410Y003434D01*
X014372Y003463D01*
X014335Y003495D01*
X014301Y003529D01*
X014271Y003566D01*
X014243Y003605D01*
X014218Y003647D01*
X014198Y003691D01*
X014180Y003736D01*
X014167Y003782D01*
X014157Y003829D01*
X014151Y003877D01*
X014149Y003925D01*
X018205Y002744D02*
X020567Y002744D01*
X020567Y005106D01*
X018205Y005106D01*
X018205Y002744D01*
X018795Y003925D02*
X018797Y003973D01*
X018803Y004021D01*
X018813Y004068D01*
X018826Y004114D01*
X018844Y004159D01*
X018864Y004203D01*
X018889Y004245D01*
X018917Y004284D01*
X018947Y004321D01*
X018981Y004355D01*
X019018Y004387D01*
X019056Y004416D01*
X019097Y004441D01*
X019140Y004463D01*
X019185Y004481D01*
X019231Y004495D01*
X019278Y004506D01*
X019326Y004513D01*
X019374Y004516D01*
X019422Y004515D01*
X019470Y004510D01*
X019518Y004501D01*
X019564Y004489D01*
X019609Y004472D01*
X019653Y004452D01*
X019695Y004429D01*
X019735Y004402D01*
X019773Y004372D01*
X019808Y004339D01*
X019840Y004303D01*
X019870Y004265D01*
X019896Y004224D01*
X019918Y004181D01*
X019938Y004137D01*
X019953Y004092D01*
X019965Y004045D01*
X019973Y003997D01*
X019977Y003949D01*
X019977Y003901D01*
X019973Y003853D01*
X019965Y003805D01*
X019953Y003758D01*
X019938Y003713D01*
X019918Y003669D01*
X019896Y003626D01*
X019870Y003585D01*
X019840Y003547D01*
X019808Y003511D01*
X019773Y003478D01*
X019735Y003448D01*
X019695Y003421D01*
X019653Y003398D01*
X019609Y003378D01*
X019564Y003361D01*
X019518Y003349D01*
X019470Y003340D01*
X019422Y003335D01*
X019374Y003334D01*
X019326Y003337D01*
X019278Y003344D01*
X019231Y003355D01*
X019185Y003369D01*
X019140Y003387D01*
X019097Y003409D01*
X019056Y003434D01*
X019018Y003463D01*
X018981Y003495D01*
X018947Y003529D01*
X018917Y003566D01*
X018889Y003605D01*
X018864Y003647D01*
X018844Y003691D01*
X018826Y003736D01*
X018813Y003782D01*
X018803Y003829D01*
X018797Y003877D01*
X018795Y003925D01*
X022850Y002744D02*
X025213Y002744D01*
X025213Y005106D01*
X022850Y005106D01*
X022850Y002744D01*
X023441Y003925D02*
X023443Y003973D01*
X023449Y004021D01*
X023459Y004068D01*
X023472Y004114D01*
X023490Y004159D01*
X023510Y004203D01*
X023535Y004245D01*
X023563Y004284D01*
X023593Y004321D01*
X023627Y004355D01*
X023664Y004387D01*
X023702Y004416D01*
X023743Y004441D01*
X023786Y004463D01*
X023831Y004481D01*
X023877Y004495D01*
X023924Y004506D01*
X023972Y004513D01*
X024020Y004516D01*
X024068Y004515D01*
X024116Y004510D01*
X024164Y004501D01*
X024210Y004489D01*
X024255Y004472D01*
X024299Y004452D01*
X024341Y004429D01*
X024381Y004402D01*
X024419Y004372D01*
X024454Y004339D01*
X024486Y004303D01*
X024516Y004265D01*
X024542Y004224D01*
X024564Y004181D01*
X024584Y004137D01*
X024599Y004092D01*
X024611Y004045D01*
X024619Y003997D01*
X024623Y003949D01*
X024623Y003901D01*
X024619Y003853D01*
X024611Y003805D01*
X024599Y003758D01*
X024584Y003713D01*
X024564Y003669D01*
X024542Y003626D01*
X024516Y003585D01*
X024486Y003547D01*
X024454Y003511D01*
X024419Y003478D01*
X024381Y003448D01*
X024341Y003421D01*
X024299Y003398D01*
X024255Y003378D01*
X024210Y003361D01*
X024164Y003349D01*
X024116Y003340D01*
X024068Y003335D01*
X024020Y003334D01*
X023972Y003337D01*
X023924Y003344D01*
X023877Y003355D01*
X023831Y003369D01*
X023786Y003387D01*
X023743Y003409D01*
X023702Y003434D01*
X023664Y003463D01*
X023627Y003495D01*
X023593Y003529D01*
X023563Y003566D01*
X023535Y003605D01*
X023510Y003647D01*
X023490Y003691D01*
X023472Y003736D01*
X023459Y003782D01*
X023449Y003829D01*
X023443Y003877D01*
X023441Y003925D01*
X027654Y002744D02*
X030016Y002744D01*
X030016Y005106D01*
X027654Y005106D01*
X027654Y002744D01*
X028244Y003925D02*
X028246Y003973D01*
X028252Y004021D01*
X028262Y004068D01*
X028275Y004114D01*
X028293Y004159D01*
X028313Y004203D01*
X028338Y004245D01*
X028366Y004284D01*
X028396Y004321D01*
X028430Y004355D01*
X028467Y004387D01*
X028505Y004416D01*
X028546Y004441D01*
X028589Y004463D01*
X028634Y004481D01*
X028680Y004495D01*
X028727Y004506D01*
X028775Y004513D01*
X028823Y004516D01*
X028871Y004515D01*
X028919Y004510D01*
X028967Y004501D01*
X029013Y004489D01*
X029058Y004472D01*
X029102Y004452D01*
X029144Y004429D01*
X029184Y004402D01*
X029222Y004372D01*
X029257Y004339D01*
X029289Y004303D01*
X029319Y004265D01*
X029345Y004224D01*
X029367Y004181D01*
X029387Y004137D01*
X029402Y004092D01*
X029414Y004045D01*
X029422Y003997D01*
X029426Y003949D01*
X029426Y003901D01*
X029422Y003853D01*
X029414Y003805D01*
X029402Y003758D01*
X029387Y003713D01*
X029367Y003669D01*
X029345Y003626D01*
X029319Y003585D01*
X029289Y003547D01*
X029257Y003511D01*
X029222Y003478D01*
X029184Y003448D01*
X029144Y003421D01*
X029102Y003398D01*
X029058Y003378D01*
X029013Y003361D01*
X028967Y003349D01*
X028919Y003340D01*
X028871Y003335D01*
X028823Y003334D01*
X028775Y003337D01*
X028727Y003344D01*
X028680Y003355D01*
X028634Y003369D01*
X028589Y003387D01*
X028546Y003409D01*
X028505Y003434D01*
X028467Y003463D01*
X028430Y003495D01*
X028396Y003529D01*
X028366Y003566D01*
X028338Y003605D01*
X028313Y003647D01*
X028293Y003691D01*
X028275Y003736D01*
X028262Y003782D01*
X028252Y003829D01*
X028246Y003877D01*
X028244Y003925D01*
X032886Y004106D02*
X032886Y002630D01*
X034776Y002630D01*
X034776Y003201D01*
X034753Y003203D01*
X034730Y003208D01*
X034708Y003217D01*
X034688Y003228D01*
X034669Y003243D01*
X034653Y003260D01*
X034640Y003280D01*
X034630Y003301D01*
X034623Y003323D01*
X034619Y003346D01*
X034619Y003370D01*
X034623Y003393D01*
X034630Y003415D01*
X034640Y003437D01*
X034653Y003456D01*
X034669Y003473D01*
X034688Y003488D01*
X034708Y003499D01*
X034730Y003508D01*
X034753Y003513D01*
X034776Y003515D01*
X034776Y003536D02*
X034776Y004106D01*
X032886Y004106D01*
X035264Y003642D02*
X035421Y003642D01*
X035343Y003563D02*
X035343Y003721D01*
X035264Y003406D02*
X035461Y003406D01*
X035264Y003406D02*
X035264Y002579D01*
X036091Y003406D02*
X036287Y003406D01*
X036287Y002579D01*
X037004Y002591D02*
X038894Y002591D01*
X038894Y003161D01*
X038894Y003162D02*
X038871Y003164D01*
X038848Y003169D01*
X038826Y003178D01*
X038806Y003189D01*
X038787Y003204D01*
X038771Y003221D01*
X038758Y003241D01*
X038748Y003262D01*
X038741Y003284D01*
X038737Y003307D01*
X038737Y003331D01*
X038741Y003354D01*
X038748Y003376D01*
X038758Y003398D01*
X038771Y003417D01*
X038787Y003434D01*
X038806Y003449D01*
X038826Y003460D01*
X038848Y003469D01*
X038871Y003474D01*
X038894Y003476D01*
X038894Y003496D02*
X038894Y004067D01*
X037004Y004067D01*
X037004Y002591D01*
X039185Y002933D02*
X039185Y003760D01*
X039382Y003760D01*
X039264Y003917D02*
X039264Y004075D01*
X039343Y003996D02*
X039185Y003996D01*
X040012Y003760D02*
X040209Y003760D01*
X040209Y002933D01*
X029927Y010736D02*
X029929Y010749D01*
X029934Y010761D01*
X029943Y010772D01*
X029953Y010780D01*
X029966Y010784D01*
X029979Y010785D01*
X029992Y010782D01*
X030004Y010776D01*
X030014Y010767D01*
X030021Y010756D01*
X030025Y010743D01*
X030025Y010729D01*
X030021Y010716D01*
X030014Y010705D01*
X030004Y010696D01*
X029992Y010690D01*
X029979Y010687D01*
X029966Y010688D01*
X029953Y010692D01*
X029943Y010700D01*
X029934Y010711D01*
X029929Y010723D01*
X029927Y010736D01*
X029839Y010726D02*
X029839Y010913D01*
X029839Y010726D02*
X029652Y010726D01*
X028864Y010726D02*
X028677Y010726D01*
X028677Y010913D01*
X028677Y010795D01*
X028677Y011701D02*
X028677Y011888D01*
X028864Y011888D01*
X028746Y011888D01*
X029652Y011888D02*
X029839Y011888D01*
X029839Y011701D01*
X029839Y011819D01*
X031669Y012272D02*
X031669Y015343D01*
X031669Y016287D02*
X031669Y019083D01*
X037969Y019083D01*
X037969Y016287D01*
X037969Y015303D02*
X037969Y012272D01*
X031669Y012272D01*
X027299Y014595D02*
X027299Y015697D01*
X027299Y016091D02*
X027299Y017193D01*
X025252Y017193D01*
X024701Y016642D01*
X024701Y016091D01*
X024701Y015697D02*
X024701Y015146D01*
X025252Y014595D01*
X027299Y014595D01*
X025055Y014122D02*
X025055Y014043D01*
X025055Y014122D02*
X023323Y014122D01*
X023323Y014043D01*
X023582Y013925D02*
X023584Y013939D01*
X023590Y013953D01*
X023598Y013965D01*
X023610Y013973D01*
X023624Y013979D01*
X023638Y013981D01*
X023652Y013979D01*
X023666Y013973D01*
X023678Y013965D01*
X023686Y013953D01*
X023692Y013939D01*
X023694Y013925D01*
X023692Y013911D01*
X023686Y013897D01*
X023678Y013885D01*
X023666Y013877D01*
X023652Y013871D01*
X023638Y013869D01*
X023624Y013871D01*
X023610Y013877D01*
X023598Y013885D01*
X023590Y013897D01*
X023584Y013911D01*
X023582Y013925D01*
X023323Y011051D02*
X023323Y011012D01*
X025055Y011012D01*
X025055Y011051D01*
X020488Y008571D02*
X020488Y008099D01*
X019307Y008099D01*
X019307Y008571D01*
X020488Y008571D01*
X016945Y008571D02*
X016945Y008099D01*
X015764Y008099D01*
X015764Y008571D01*
X016945Y008571D01*
X013402Y008571D02*
X013402Y008099D01*
X012221Y008099D01*
X012221Y008571D01*
X013402Y008571D01*
X017795Y013347D02*
X019331Y013347D01*
X019331Y014606D01*
X017795Y014606D01*
X017795Y013347D01*
X017898Y015441D02*
X018488Y015441D01*
X018488Y016071D01*
X018676Y015362D02*
X018678Y015380D01*
X018684Y015398D01*
X018693Y015414D01*
X018705Y015427D01*
X018720Y015438D01*
X018737Y015446D01*
X018755Y015450D01*
X018773Y015450D01*
X018791Y015446D01*
X018808Y015438D01*
X018823Y015427D01*
X018835Y015414D01*
X018844Y015398D01*
X018850Y015380D01*
X018852Y015362D01*
X018850Y015344D01*
X018844Y015326D01*
X018835Y015310D01*
X018823Y015297D01*
X018808Y015286D01*
X018791Y015278D01*
X018773Y015274D01*
X018755Y015274D01*
X018737Y015278D01*
X018720Y015286D01*
X018705Y015297D01*
X018693Y015310D01*
X018684Y015326D01*
X018678Y015344D01*
X018676Y015362D01*
X022028Y017116D02*
X022254Y017116D01*
X022028Y017116D02*
X022028Y017343D01*
X022028Y018307D02*
X022028Y018534D01*
X022254Y018534D01*
X021872Y018435D02*
X021874Y018445D01*
X021879Y018454D01*
X021888Y018460D01*
X021897Y018463D01*
X021908Y018462D01*
X021917Y018457D01*
X021924Y018450D01*
X021928Y018440D01*
X021928Y018430D01*
X021924Y018420D01*
X021917Y018413D01*
X021908Y018408D01*
X021897Y018407D01*
X021888Y018410D01*
X021879Y018416D01*
X021874Y018425D01*
X021872Y018435D01*
X023219Y018534D02*
X023445Y018534D01*
X023445Y018307D01*
X023445Y017343D02*
X023445Y017116D01*
X023219Y017116D01*
X024701Y017902D02*
X024701Y018453D01*
X024701Y018847D02*
X024701Y019398D01*
X025252Y019949D01*
X027299Y019949D01*
X027299Y018847D01*
X027299Y018453D02*
X027299Y017350D01*
X025252Y017350D01*
X024701Y017902D01*
X023795Y020347D02*
X023402Y020347D01*
X023402Y020465D01*
X023400Y020480D01*
X023396Y020495D01*
X023389Y020509D01*
X023379Y020521D01*
X023367Y020531D01*
X023353Y020538D01*
X023338Y020542D01*
X023323Y020544D01*
X023323Y020543D02*
X022850Y020543D01*
X021827Y020543D02*
X021433Y020543D01*
X021433Y021410D01*
X020921Y021445D02*
X020921Y020973D01*
X020488Y020973D02*
X020173Y020973D01*
X019740Y020973D02*
X019740Y021445D01*
X020095Y021445D01*
X020567Y021445D02*
X020921Y021445D01*
X023795Y020347D02*
X023795Y030189D01*
X023795Y030071D02*
X023795Y030386D01*
X023402Y030386D01*
X023402Y030268D01*
X023400Y030253D01*
X023396Y030238D01*
X023389Y030224D01*
X023379Y030212D01*
X023367Y030202D01*
X023353Y030195D01*
X023338Y030191D01*
X023323Y030189D01*
X022850Y030189D01*
X021827Y030189D02*
X021433Y030189D01*
X021433Y029323D01*
X017748Y028532D02*
X017748Y027902D01*
X017748Y028532D02*
X017118Y028532D01*
X012197Y028532D02*
X011567Y028532D01*
X011567Y027902D01*
X011255Y028453D02*
X011257Y028467D01*
X011263Y028481D01*
X011271Y028493D01*
X011283Y028501D01*
X011297Y028507D01*
X011311Y028509D01*
X011325Y028507D01*
X011339Y028501D01*
X011351Y028493D01*
X011359Y028481D01*
X011365Y028467D01*
X011367Y028453D01*
X011365Y028439D01*
X011359Y028425D01*
X011351Y028413D01*
X011339Y028405D01*
X011325Y028399D01*
X011311Y028397D01*
X011297Y028399D01*
X011283Y028405D01*
X011271Y028413D01*
X011263Y028425D01*
X011257Y028439D01*
X011255Y028453D01*
X011291Y028453D02*
X011293Y028461D01*
X011298Y028468D01*
X011305Y028472D01*
X011313Y028473D01*
X011321Y028470D01*
X011327Y028465D01*
X011331Y028457D01*
X011331Y028449D01*
X011327Y028441D01*
X011321Y028436D01*
X011313Y028433D01*
X011305Y028434D01*
X011298Y028438D01*
X011293Y028445D01*
X011291Y028453D01*
X010882Y029673D02*
X008520Y029673D01*
X008520Y032036D01*
X010882Y032036D01*
X010882Y029673D01*
X009110Y030854D02*
X009112Y030902D01*
X009118Y030950D01*
X009128Y030997D01*
X009141Y031043D01*
X009159Y031088D01*
X009179Y031132D01*
X009204Y031174D01*
X009232Y031213D01*
X009262Y031250D01*
X009296Y031284D01*
X009333Y031316D01*
X009371Y031345D01*
X009412Y031370D01*
X009455Y031392D01*
X009500Y031410D01*
X009546Y031424D01*
X009593Y031435D01*
X009641Y031442D01*
X009689Y031445D01*
X009737Y031444D01*
X009785Y031439D01*
X009833Y031430D01*
X009879Y031418D01*
X009924Y031401D01*
X009968Y031381D01*
X010010Y031358D01*
X010050Y031331D01*
X010088Y031301D01*
X010123Y031268D01*
X010155Y031232D01*
X010185Y031194D01*
X010211Y031153D01*
X010233Y031110D01*
X010253Y031066D01*
X010268Y031021D01*
X010280Y030974D01*
X010288Y030926D01*
X010292Y030878D01*
X010292Y030830D01*
X010288Y030782D01*
X010280Y030734D01*
X010268Y030687D01*
X010253Y030642D01*
X010233Y030598D01*
X010211Y030555D01*
X010185Y030514D01*
X010155Y030476D01*
X010123Y030440D01*
X010088Y030407D01*
X010050Y030377D01*
X010010Y030350D01*
X009968Y030327D01*
X009924Y030307D01*
X009879Y030290D01*
X009833Y030278D01*
X009785Y030269D01*
X009737Y030264D01*
X009689Y030263D01*
X009641Y030266D01*
X009593Y030273D01*
X009546Y030284D01*
X009500Y030298D01*
X009455Y030316D01*
X009412Y030338D01*
X009371Y030363D01*
X009333Y030392D01*
X009296Y030424D01*
X009262Y030458D01*
X009232Y030495D01*
X009204Y030534D01*
X009179Y030576D01*
X009159Y030620D01*
X009141Y030665D01*
X009128Y030711D01*
X009118Y030758D01*
X009112Y030806D01*
X009110Y030854D01*
X007382Y023240D02*
X007264Y023240D01*
X007382Y023240D02*
X007382Y020878D01*
X007264Y020878D01*
X007547Y019650D02*
X007784Y019650D01*
X007547Y019650D02*
X007547Y019413D01*
X007334Y019571D02*
X007336Y019585D01*
X007342Y019599D01*
X007350Y019611D01*
X007362Y019619D01*
X007376Y019625D01*
X007390Y019627D01*
X007404Y019625D01*
X007418Y019619D01*
X007430Y019611D01*
X007438Y019599D01*
X007444Y019585D01*
X007446Y019571D01*
X007444Y019557D01*
X007438Y019543D01*
X007430Y019531D01*
X007418Y019523D01*
X007404Y019517D01*
X007390Y019515D01*
X007376Y019517D01*
X007362Y019523D01*
X007350Y019531D01*
X007342Y019543D01*
X007336Y019557D01*
X007334Y019571D01*
X007351Y019571D02*
X007353Y019583D01*
X007358Y019594D01*
X007367Y019603D01*
X007378Y019608D01*
X007390Y019610D01*
X007402Y019608D01*
X007413Y019603D01*
X007422Y019594D01*
X007427Y019583D01*
X007429Y019571D01*
X007427Y019559D01*
X007422Y019548D01*
X007413Y019539D01*
X007402Y019534D01*
X007390Y019532D01*
X007378Y019534D01*
X007367Y019539D01*
X007358Y019548D01*
X007353Y019559D01*
X007351Y019571D01*
X005532Y020878D02*
X005413Y020878D01*
X005413Y023240D01*
X005532Y023240D01*
X009201Y019650D02*
X009437Y019650D01*
X009437Y019413D01*
X009437Y017996D02*
X009437Y017760D01*
X009201Y017760D01*
X007784Y017760D02*
X007547Y017760D01*
X007547Y017996D01*
X008244Y015973D02*
X008717Y015973D01*
X008717Y014791D01*
X008244Y014791D01*
X008244Y015973D01*
X011567Y022350D02*
X011567Y022980D01*
X011567Y022350D02*
X012197Y022350D01*
X017118Y022350D02*
X017748Y022350D01*
X017748Y022980D01*
D14*
X035303Y009008D02*
X035303Y008181D01*
X035303Y009008D02*
X035579Y009008D01*
X037429Y009008D02*
X039516Y009008D01*
X039516Y005465D01*
X035303Y005465D01*
X035303Y006291D01*
D15*
X035382Y002638D03*
X036169Y002638D03*
X039303Y002992D03*
X040091Y002992D03*
D16*
X008776Y015008D03*
X008185Y015008D03*
D17*
X007146Y023476D03*
D18*
X004402Y023471D02*
X004402Y022971D01*
X004152Y022721D01*
X002652Y022721D01*
X002402Y022971D01*
X002402Y023471D01*
X002652Y023721D01*
X004152Y023721D01*
X004402Y023971D01*
X004402Y024471D01*
X004152Y024721D01*
X002652Y024721D01*
X002402Y024971D01*
X002402Y025471D01*
X002652Y025721D01*
X004152Y025721D01*
X004402Y025971D01*
X004402Y026471D01*
X004152Y026721D01*
X002652Y026721D01*
X002402Y026971D01*
X002402Y027471D01*
X002652Y027721D01*
X004152Y027721D01*
X004402Y027971D01*
X004402Y028471D01*
X004152Y028721D01*
X002652Y028721D01*
X002402Y028971D01*
X002402Y029471D01*
X002652Y029721D01*
X004152Y029721D01*
X004402Y029471D01*
X004402Y028971D01*
X004152Y028721D01*
X004152Y029721D02*
X004402Y029971D01*
X004402Y030471D01*
X004152Y030721D01*
X004402Y030971D01*
X004402Y031471D01*
X004152Y031721D01*
X002652Y031721D01*
X002402Y031471D01*
X002402Y030971D01*
X002652Y030721D01*
X004152Y030721D01*
X002652Y030721D02*
X002402Y030471D01*
X002402Y029971D01*
X002652Y029721D01*
X002652Y028721D02*
X002402Y028471D01*
X002402Y027971D01*
X002652Y027721D01*
X002652Y026721D02*
X002402Y026471D01*
X002402Y025971D01*
X002652Y025721D01*
X002652Y024721D02*
X002402Y024471D01*
X002402Y023971D01*
X002652Y023721D01*
X002652Y022721D02*
X002402Y022471D01*
X002402Y021971D01*
X002652Y021721D01*
X004152Y021721D01*
X004402Y021971D01*
X004402Y022471D01*
X004152Y022721D01*
X004402Y023471D02*
X004152Y023721D01*
X004152Y024721D02*
X004402Y024971D01*
X004402Y025471D01*
X004152Y025721D01*
X004152Y026721D02*
X004402Y026971D01*
X004402Y027471D01*
X004152Y027721D01*
X024382Y007719D02*
X024632Y007969D01*
X025132Y007969D01*
X025382Y007719D01*
X025632Y007969D01*
X026132Y007969D01*
X026382Y007719D01*
X026632Y007969D01*
X027132Y007969D01*
X027382Y007719D01*
X027382Y007219D01*
X027132Y006969D01*
X026632Y006969D01*
X026382Y007219D01*
X026132Y006969D01*
X025632Y006969D01*
X025382Y007219D01*
X025132Y006969D01*
X024632Y006969D01*
X024382Y007219D01*
X024382Y007719D01*
X025382Y007719D02*
X025382Y007219D01*
X026382Y007219D02*
X026382Y007719D01*
D19*
X019524Y008039D03*
X019524Y008630D03*
X015980Y008630D03*
X015980Y008039D03*
X012437Y008039D03*
X012437Y008630D03*
M02*
