%
M48
M72
T01C0.0120
T02C0.0236
T03C0.0400
T04C0.0512
T05C0.1180
%
T01
X5882Y6878
X5882Y8374
X5882Y10224
X3402Y9949
X8874Y9595
X8874Y8689
X10213Y7272
X10567Y7272
X10921Y7272
X11315Y7272
X11669Y7272
X12024Y7272
X13756Y9476
X13047Y11602
X13008Y12036
X13402Y12469
X13756Y12902
X14189Y13413
X15055Y13413
X14661Y12469
X12299Y12744
X12063Y12429
X12417Y14043
X14583Y14949
X15646Y16012
X15449Y16721
X16394Y16721
X17142Y16209
X17575Y16209
X17969Y16209
X17772Y17114
X17496Y17902
X16787Y17744
X16591Y18335
X16315Y18571
X15528Y18020
X15291Y19043
X14661Y18768
X14504Y19752
X13559Y19713
X13165Y19319
X12929Y19673
X12496Y19043
X13323Y18571
X12890Y17665
X13205Y17154
X10055Y14831
X9622Y14004
X9622Y13177
X7969Y15973
X7260Y17823
X6984Y18847
X8047Y20106
X6512Y20382
X4976Y18374
X6039Y17390
X3677Y19201
X8244Y22547
X9150Y22980
X9543Y22665
X11079Y24634
X10843Y25028
X10606Y25461
X12142Y24673
X12417Y24398
X12142Y24083
X14976Y22823
X15449Y22823
X14661Y21839
X13953Y21642
X14150Y21248
X13205Y21799
X12457Y21012
X15488Y21484
X15567Y21012
X15567Y20461
X16551Y21484
X17457Y21642
X17024Y20461
X17575Y19358
X19504Y20500
X19740Y20185
X20331Y19555
X21512Y18650
X21473Y17980
X21473Y17508
X22732Y16406
X23087Y16051
X23008Y15697
X23402Y15185
X22339Y15973
X21630Y15185
X20921Y14988
X21827Y13965
X23756Y12941
X23795Y12469
X23992Y11760
X24701Y11760
X24740Y13138
X24425Y13453
X25173Y15146
X23480Y16917
X23795Y17114
X24150Y17744
X21906Y19988
X20764Y21287
X20331Y22036
X20685Y22390
X20606Y22980
X20095Y23217
X18638Y23965
X16787Y23886
X15961Y24319
X14583Y27075
X14819Y27823
X15646Y28099
X15921Y27823
X17339Y27508
X18480Y27311
X18402Y28453
X16630Y29280
X16512Y30185
X15449Y30185
X18205Y31051
X20606Y28335
X20646Y27744
X21984Y27075
X21984Y26524
X21984Y25973
X21984Y25421
X21984Y24870
X21984Y24319
X21984Y23768
X21984Y23217
X19268Y17784
X19228Y16996
X19819Y11799
X18520Y11209
X17299Y9358
X20843Y9358
X25410Y9713
X26512Y8453
X28480Y10067
X28874Y10343
X30331Y11209
X29159Y12344
X28205Y12744
X32890Y10854
X34858Y18571
X35331Y19791
X40252Y21327
X33638Y26169
X33126Y26169
X32614Y26169
X32614Y27429
X33126Y27429
X33638Y27429
X13362Y28099
X11669Y28925
X11197Y28925
X9976Y29004
X9465Y29004
X9032Y29004
X9032Y29476
X9976Y29516
X11158Y30736
X12575Y29988
X6276Y23728
X9701Y17665
X23323Y4201
T02
X2850Y3177
X23953Y2350
X31315Y3020
X37221Y3295
X22969Y22705
X16669Y26445
X23087Y28807
T03
X3902Y29221
X3902Y30221
X3902Y31221
X2902Y31221
X2902Y30221
X2902Y29221
X2902Y28221
X2902Y27221
X3902Y27221
X3902Y28221
X3902Y26221
X2902Y26221
X2902Y25221
X3902Y25221
X3902Y24221
X2902Y24221
X2902Y23221
X3902Y23221
X3902Y22221
X2902Y22221
X24882Y7469
X25882Y7469
X26882Y7469
T04
X32850Y11681
X34819Y11681
X36787Y11681
X35803Y18571
X33835Y18571
T05
X36484Y9087
X35303Y7236
X37665Y7236
M30
